<svg height="190" viewBox="0 0 190 190" width="190" xmlns="http://www.w3.org/2000/svg"><g fill="#fff"><path d="m41.166543 0h-31.666543c-5.24392578.00630859-9.49369141 4.25607422-9.5 9.5v31.666543c0 .8390429.3325 1.6465429.92773438 2.2388086.59226562.5952343 1.39976562.9277343 2.23880859.9277343s1.64654297-.3325 2.23880859-.9277343c.59523438-.5922657.92773438-1.3997657.92773438-2.2388086v-31.666543c0-1.74785156 1.4186914-3.16654297 3.16654297-3.16654297h31.66654299c1.7478515 0 3.1665429-1.41869141 3.1665429-3.16654297s-1.4179492-3.16691406-3.1661718-3.16691406z"/><path d="m180.5 0h-31.666543c-1.747852 0-3.166543 1.41869141-3.166543 3.16654297s1.418691 3.16654297 3.166543 3.16654297h31.666543c1.747852 0 3.166543 1.4186914 3.166543 3.16654297v31.66654299c0 1.7478515 1.418691 3.1665429 3.166543 3.1665429s3.166543-1.4186914 3.166543-3.1665429v-31.6661719c-.005938-5.24392578-4.255703-9.49369141-9.499629-9.5z"/><path d="m189.072266 146.594648c-.592266-.595234-1.399766-.927734-2.238809-.927734s-1.646543.3325-2.238809.927734c-.595234.592266-.927734 1.399766-.927734 2.238809v31.666543c0 1.747852-1.418691 3.166543-3.166543 3.166543h-31.666543c-1.747851 0-3.166543 1.418691-3.166543 3.166543s1.418692 3.166543 3.166543 3.166543h31.666172c5.243926-.006309 9.493691-4.256074 9.5-9.5v-31.666543c0-.839043-.3325-1.646543-.927734-2.238438z"/><path d="m41.166543 183.666543h-31.666543c-1.74785156 0-3.16654297-1.418691-3.16654297-3.166543v-31.666543c0-1.747852-1.41869141-3.166543-3.16654297-3.166543s-3.16691406 1.41832-3.16691406 3.166543v31.666543c.00630859 5.243926 4.25607422 9.493691 9.5 9.5h31.666543c1.7478515 0 3.1665429-1.418691 3.1665429-3.166543s-1.4183203-3.166914-3.1665429-3.166914z"/></g></svg>