<svg height="23" viewBox="0 0 20 23" width="20" 
    xmlns="http://www.w3.org/2000/svg">
    <path d="m10 2.85714286c-2.8459375 0-5.20263393 1.23888393-6.85330357 2.76142857l.07866071-4.72049107c.00821429-.48776786-.38089285-.89013393-.86892857-.89808036-.005 0-.01 0-.015 0-.48102678 0-.87513393.38616071-.88339286.86892857l-.1178125 7.06924107c-.00383928.23946429.08955358.47040179.25919643.63977679.169375.169375.39910715.26272321.63977679.25861607l6.8925-.1178125c.48776786-.00852679.87656247-.410625.86834817-.89866071-.00825889-.48276786-.40236603-.86861608-.88334817-.86861608-.005 0-.01 0-.0153125 0l-4.871875.08334822c1.36227678-1.29102679 3.37232143-2.4103125 5.77053567-2.4103125 4.915759 0 8.2179465 4.24919643 8.2179465 8.21794647 0 3.9829017-3.3021875 8.2474107-8.2179465 8.2474107-5.36200889 0-8.21794639-4.79-8.21794639-8.2474107 0-.4880804-.39558035-.8836608-.88366071-.8836608s-.88370536.3955358-.88370536.8836161c0 4.8365179 4.01236607 10.0147322 9.98526786 10.0147322 5.9729018 0 9.9852679-5.1782143 9.9852679-10.015 0-4.82209826-4.0123661-9.98500004-9.9852679-9.98500004z" fill="#fff"/>
</svg>