<svg height="26" viewBox="0 0 29 26" width="29" xmlns="http://www.w3.org/2000/svg"><g fill="#fff"><path d="m25.4285714 14.6996866v-9.97237358c0-1.30362025-1.0464453-2.36365651-2.3333515-2.36365651h-2.4335938c-.1532344 0-.303625-.06287647-.4124531-.17311802l-1.6497578-1.67118443c-.3304219-.3347133-.7701641-.51935406-1.2373047-.51935406h-4.8671875c-.4671406 0-.9068828.18464076-1.2373047.51935406l-1.64975781 1.67118443c-.10882812.11024155-.25921875.17311802-.41245312.17311802h-2.43359375c-1.28679688 0-2.33324219 1.06003626-2.33324219 2.36365651v9.96317748c-2.28303906.9702919-3.5 2.2176834-3.5 3.6277228 0 3.2108545 5.97296875 5.0450746 12.03814067 5.2881046l-1.3672422 1.3849996c-.2278828.2308425-.2278828.6047774 0 .8355645.113914.1153935.2632109.173118.4124531.173118s.2984844-.0577245.4124531-.173118l2.3333516-2.3636565c.2278828-.2308425.2278828-.6047774 0-.8355645l-2.3333516-2.3636566c-.2278828-.2308424-.5970234-.2308424-.8248515 0-.2278829.2308425-.2278829.6047775 0 .8355646l1.3066484 1.3236188c-6.43879688-.2658539-10.81095313-2.2817786-10.81095313-4.1049745 0-.8118543.86903906-1.6609912 2.41095312-2.3806636.25478906 1.0255234 1.16522656 1.7897356 2.25569531 1.7897356h16.3333516c1.0874062 0 1.9953828-.7601127 2.2531797-1.7813152 1.5291171.7149082 2.4135234 1.5607767 2.4135234 2.3722432 0 1.4720848-3.1023672 3.3602069-8.8098281 3.9586136-.3207422.0340696-.553711.3242985-.5206797.6485971.0313359.3041337.2848125.5303228.5799062.5303228.019961 0 .0404688-.0011634.060375-.0028807 5.9740625-.6266595 9.856875-2.6423073 9.856875-5.1346528 0-1.4100948-1.2316718-2.6540516-3.5-3.6185267zm-1.1665937.6639976c0 .6514777-.5235781 1.1818006-1.1667031 1.1818006h-16.33335161c-.643125 0-1.16664844-.5303229-1.16664844-1.1818006v-10.63637118c0-.65147774.52352344-1.18180056 1.16664844-1.18180056h2.43359375c.46714063 0 .90688286-.18464075 1.23730466-.51935406l1.6497578-1.67118443c.1088282-.11024155.2592188-.17311802.4124532-.17311802h4.8671875c.1532343 0 .303625.06287647.4124531.17311802l1.6497578 1.67118443c.3304219.33471331.7701641.51935406 1.2373047.51935406h2.4335937c.643125 0 1.1666485.53032282 1.1666485 1.18180056z"/><circle cx="21.928571" cy="6" r="1"/><path d="m15.4285714 5c-2.4812675 0-4.5 2.0187325-4.5 4.5s2.0187325 4.5 4.5 4.5 4.5-2.0187325 4.5-4.5-2.0187325-4.5-4.5-4.5zm0 7.8750132c-1.8611088 0-3.3750132-1.5139044-3.3750132-3.3750132 0-1.86110883 1.5139044-3.37501318 3.3750132-3.37501318 1.8611089 0 3.3750132 1.51390435 3.3750132 3.37501318 0 1.8611088-1.5139043 3.3750132-3.3750132 3.3750132z"/></g></svg>