<svg height="24" viewBox="0 0 22 24" width="22" xmlns="http://www.w3.org/2000/svg"><path d="m282 47c-.354066-1.0031719-1.084868-2.955906-1.670976-3.7272159-2.30376-3.0262687-1.94436-6.6898231-1.92769-6.843951h-.000667c-.001334 0 .034006-1.7061294-1.190221-2.9766798-.928172-.9636347-2.344434-1.4521533-4.210113-1.4521533-1.872346 0-3.292609.4918692-4.220781 1.461535-1.230895 1.2859632-1.179552 2.9813706-1.178885 2.9981237.014002.1226322.376069 3.7861865-1.929024 6.8131254-.587442.7713099-1.318244 2.724044-1.671643 3.7272159zm-11 2c.358364.6 1.12342 1 2 1s1.641636-.4 2-1zm2.000247 3c-1.769038 0-3.282111-1.2774718-3.675751-3.0352066h-6.000829c-.423046 0-.824037-.2124506-1.071983-.5674577-.248614-.353623-.318119-.8138173-.185792-1.2311064.195817-.6158991 1.218344-3.7514489 2.166019-5.0330728 1.849237-2.503042 1.575226-5.7140221 1.571885-5.7465471l-.006015-.0920389c-.00401-.1010351-.07552-2.5611718 1.68082-4.4524668.781933-.8414982 1.799113-1.4352527 3.026814-1.765347.255966-1.2055015 1.274483-2.0767567 2.494832-2.0767567 1.219681 0 2.238866.8712552 2.494832 2.0767567 1.226364.3300943 2.242876.9231568 3.024809 1.764655 1.757008 1.891295 1.685498 4.3521237 1.681489 4.4559269l-.006015.0906548c-.003342.032525-.289382 3.2227445 1.574558 5.7458551.947675 1.2857761 1.968865 4.4171737 2.164014 5.0316888.132327.416597.06349.8767914-.185124 1.2317984-.247946.3550071-.648269.5674577-1.072651.5674577h-6.000161c-.39364 1.7577348-1.907381 3.0352066-3.675751 3.0352066z" fill="#273645" fill-rule="evenodd" opacity=".5" transform="translate(-262 -28)"/></svg>