<?xml version="1.0" encoding="UTF-8"?>
<svg width="22px" height="24px" viewBox="0 0 22 24" version="1.1" xmlns="http://www.w3.org/2000/svg" xmlns:xlink="http://www.w3.org/1999/xlink">
    <!-- Generator: Sketch 55.2 (78181) - https://sketchapp.com -->
    <title>Activity</title>
    <desc>Created with Sketch.</desc>
    <g id="Page-1" stroke="none" stroke-width="1" fill="none" fill-rule="evenodd" opacity="0.5">
        <g id="Dashboard---2-expanded-watch-video" transform="translate(-268.000000, -923.000000)" fill="#273645">
            <g id="Tab-Bar" transform="translate(0.000000, 895.000000)">
                <path d="M288,47 C287.645934,45.9968281 286.915132,44.044094 286.329024,43.2727841 C284.025264,40.2465154 284.384664,36.582961 284.401334,36.4288331 L284.400667,36.4288331 C284.399333,36.4288331 284.434673,34.7227037 283.210446,33.4521533 C282.282274,32.4885186 280.866012,32 279.000333,32 C277.127987,32 275.707724,32.4918692 274.779552,33.461535 C273.548657,34.7474982 273.6,36.4429056 273.600667,36.4596587 C273.614669,36.5822909 273.976736,40.2458452 271.671643,43.2727841 C271.084201,44.044094 270.353399,45.9968281 270,47 L288,47 Z M277,49 C277.358364,49.6 278.12342,50 279,50 C279.87658,50 280.641636,49.6 281,49 L277,49 Z M279.000247,52 C277.231209,52 275.718136,50.7225282 275.324496,48.9647934 L269.323667,48.9647934 C268.900621,48.9647934 268.49963,48.7523428 268.251684,48.3973357 C268.00307,48.0437127 267.933565,47.5835184 268.065892,47.1662293 C268.261709,46.5503302 269.284236,43.4147804 270.231911,42.1331565 C272.081148,39.6301145 271.807137,36.4191344 271.803796,36.3866094 L271.797781,36.2945705 C271.793771,36.1935354 271.722261,33.7333987 273.478601,31.8421037 C274.260534,31.0006055 275.277714,30.406851 276.505415,30.0767567 C276.761381,28.8712552 277.779898,28 279.000247,28 C280.219928,28 281.239113,28.8712552 281.495079,30.0767567 C282.721443,30.406851 283.737955,30.9999135 284.519888,31.8414117 C286.276896,33.7327067 286.205386,36.1935354 286.201377,36.2973386 L286.195362,36.3879934 C286.19202,36.4205184 285.90598,39.6107379 287.76992,42.1338485 C288.717595,43.4196246 289.738785,46.5510222 289.933934,47.1655373 C290.066261,47.5821343 289.997424,48.0423287 289.74881,48.3973357 C289.500864,48.7523428 289.100541,48.9647934 288.676159,48.9647934 L282.675998,48.9647934 C282.282358,50.7225282 280.768617,52 279.000247,52 L279.000247,52 Z" id="Activity"></path>
            </g>
        </g>
    </g>
</svg>