<svg height="19" viewBox="0 0 19 19" width="19" xmlns="http://www.w3.org/2000/svg"><g fill="#fff"><path d="m11.8537317 7.1462756c-.1955244-.19503413-.512064-.19503413-.7070884 0-.1955244.19553422-.1955244.51208961 0 .70707374.1950244.19553421.511564.19553421.7070884 0 .1950244-.19503413.1950244-.51153952 0-.70707374z"/><path d="m18.5648058 7.25713232-.5247249-.52468843c.0193339-.02827729.5885157-.49177248.5885157-1.35686453 0-.49570607-.1931165-.96165047-.5436877-1.31199939l-.2623996-.26239988.2622141-.26243699c.725152-.72411382.7258941-1.89903144.0002597-2.62366479-.7248551-.72533842-1.8985096-.72578374-2.6235502-.00022265l-.2626965.2625112-.2623253-.26232566c-.7249294-.72544975-1.8989178-.72570952-2.6241069-.00007422l-.0448651.04486515-.5246507-.52465132c-.5800548-.5800184-1.5188448-.5804266-2.09915934-.00011133-.58020324.57975864-.58050011 1.5190693-.00011133 2.09901348l2.09915937 2.09916191-7.10942862 7.10940013-2.0989367-2.09893922c-.57908996-.5800184-1.51943853-.58087191-2.09901091-.00033399-.58035168.57990711-.5804259 1.51906931-.00007422 2.09945881l.52465068.5246513-.04475377.0447538c-.72544887.7249302-.72570863 1.8989201-.00007422 2.6241101l.26239956.2623999-.26221401.262437c-.72515199.7241138-.72589418 1.8990314-.00025976 2.6237019.72485512.7252642 1.89843538.7258208 2.62362448.0001855l.26269643-.2625112.26232534.2623257c.72492934.7254497 1.8989178.7257466 2.62410691.0000742l.04482798-.044828.52465068.5246884c.58009191.5800555 1.518919.5803895 2.09919646.0001113.58020324-.5797586.58050011-1.5190693.00011133-2.0990135l-2.09915936-2.0991619 7.10939152-7.10940013 2.0989367 2.09893926c.5790899.5800184 1.5194385.58087191 2.0990109.00033398.5803517-.57998129.5804259-1.51914351.0001113-2.09949589zm-2.5785738-5.8174398c.4338443-.43417884 1.1376956-.43651673 1.5741004.00025976.4349205.43429017.435403 1.13884739-.0002597 1.57395396l-.2622882.2625112-1.574249-1.57425082zm-3.1490174 0c.4349205-.4352179 1.1391429-.43547766 1.5743232.00007422l3.1486833 3.1486872c.4352174.43492103.4354772 1.13914426-.0000742 1.57432505l-.044828.04486515-4.7230436-4.72301226zm-9.82348832 16.12054078c-.43384433.4341788-1.13769561.4365167-1.57410048-.0002598-.43492049-.4342902-.43540291-1.1388474.00025977-1.573954l.26228823-.2625112 1.57424891 1.5742509zm3.14901734 0c-.43492049.4352179-1.13914286.4354776-1.57432312-.0000743l-3.14868337-3.1486872c-.43521737-.434921-.43547713-1.1391442.00007422-1.574325l.04482798-.0448651 4.7230065 4.7230122zm2.668972-.5694794c.29004596.2897123.29026861.759145-.00007422 1.0492284-.29078814.2907885-.76003469.2896381-1.04970956 0-.31023339-.3102337-6.48239348-6.4824014-6.82194319-6.8219515-.28770807-.2877084-.2926436-.7572895.00022266-1.0499335.28867291-.28915566.75862454-.29075136 1.0490787.0002227zm-2.09923357-3.1489098-1.57436024-1.5743622 7.10939149-7.10940017 1.5743602 1.57439927zm11.30726485-5.01001564c-.2886729.28915568-.7586245.29075138-1.0490787-.00022266l-6.8224256-6.82239682c-.29000882-.28971232-.29023147-.759145.0001114-1.04922841.2907881-.2907885.7599975-.28963811 1.0497095 0 .3395868.33958722 6.5166453 6.51665327 6.8219061 6.8219515.2877081.28767132.2926436.75728954-.0002227 1.04989639z"/><path d="m9.91289676 9.08712851c-.11617235-.11617135-.30449885-.11617135-.42064146 0l-2.40514834 2.40512749c-.11614261.1161416-.11614261.3044665 0 .4206378.1161426.1161416.30446911.1161416.42061172 0l2.40514834-2.40512748c.11617238-.11617134.11617238-.30446647.00002974-.42063781z"/></g></svg>