<?xml version="1.0" encoding="UTF-8"?>
<svg width="25px" height="23px" viewBox="0 0 25 23" version="1.1" xmlns="http://www.w3.org/2000/svg" xmlns:xlink="http://www.w3.org/1999/xlink">
    <!-- Generator: Sketch 55.2 (78181) - https://sketchapp.com -->
    <title>download (5)</title>
    <desc>Created with Sketch.</desc>
    <g id="Page-1" stroke="none" stroke-width="1" fill="none" fill-rule="evenodd">
        <g id="Intro-video" transform="translate(-68.000000, -431.000000)" fill="#FFFFFF" fill-rule="nonzero">
            <g id="download-(5)" transform="translate(68.000000, 431.000000)">
                <path d="M5.25,9 L0.75,9 C0.33,9 0,9.33 0,9.75 L0,14.25 C0,14.67 0.33,15 0.75,15 L5.25,15 C5.67,15 6,14.67 6,14.25 L6,9.75 C6,9.33 5.67,9 5.25,9 Z M4.5,13.5 L1.5,13.5 L1.5,10.5 L4.5,10.5 L4.5,13.5 Z" id="Shape"></path>
                <path d="M5.25,0 L0.75,0 C0.33,0 0,0.33 0,0.75 L0,5.25 C0,5.67 0.33,6 0.75,6 L5.25,6 C5.67,6 6,5.67 6,5.25 L6,0.75 C6,0.33 5.67,0 5.25,0 Z M4.5,4.5 L1.5,4.5 L1.5,1.5 L4.5,1.5 L4.5,4.5 Z" id="Shape"></path>
                <path d="M5.25,17 L0.75,17 C0.33,17 0,17.33 0,17.75 L0,22.25 C0,22.67 0.33,23 0.75,23 L5.25,23 C5.67,23 6,22.67 6,22.25 L6,17.75 C6,17.33 5.67,17 5.25,17 Z M4.5,21.5 L1.5,21.5 L1.5,18.5 L4.5,18.5 L4.5,21.5 Z" id="Shape"></path>
                <path d="M14.2727273,2 L7.72727273,2 C7.32,2 7,2.22 7,2.5 C7,2.78 7.32,3 7.72727273,3 L14.2727273,3 C14.68,3 15,2.78 15,2.5 C15,2.22 14.68,2 14.2727273,2 Z" id="Path"></path>
                <path d="M14.2727273,11 L7.72727273,11 C7.32,11 7,11.22 7,11.5 C7,11.78 7.32,12 7.72727273,12 L14.2727273,12 C14.68,12 15,11.78 15,11.5 C15,11.22 14.68,11 14.2727273,11 Z" id="Path"></path>
                <path d="M14.2727273,20 L7.72727273,20 C7.32,20 7,20.22 7,20.5 C7,20.78 7.32,21 7.72727273,21 L14.2727273,21 C14.68,21 15,20.78 15,20.5 C15,20.22 14.68,20 14.2727273,20 Z" id="Path"></path>
                <path d="M17.7272727,3 L24.2727273,3 C24.68,3 25,2.78 25,2.5 C25,2.22 24.68,2 24.2727273,2 L17.7272727,2 C17.32,2 17,2.22 17,2.5 C17,2.78 17.32,3 17.7272727,3 Z" id="Path"></path>
                <path d="M24.2727273,11 L17.7272727,11 C17.32,11 17,11.22 17,11.5 C17,11.78 17.32,12 17.7272727,12 L24.2727273,12 C24.68,12 25,11.78 25,11.5 C25,11.22 24.68,11 24.2727273,11 Z" id="Path"></path>
                <path d="M24.2727273,20 L17.7272727,20 C17.32,20 17,20.22 17,20.5 C17,20.78 17.32,21 17.7272727,21 L24.2727273,21 C24.68,21 25,20.78 25,20.5 C25,20.22 24.68,20 24.2727273,20 Z" id="Path"></path>
            </g>
        </g>
    </g>
</svg>