<svg height="19" viewBox="0 0 24 19" width="24" xmlns="http://www.w3.org/2000/svg"><g fill="#fff"><path d="m13.3263248 14.7308733c-1.9245763.5587946-3.97923473-.102829-5.23474088-1.6847724-1.44982971-1.8260271-1.4317035-4.37239856-.11195596-6.17298897l-.00026656 1.6899139c0 .29685117.23670689.53741697.52859207.53741697h.00026657c.29188518 0 .52885864-.2405658.52885864-.53714637l.00106624-3.02506765c0-.00757687-.00213249-.01515375-.00239905-.02246002-.00053313-.01813038-.00266562-.03626076-.00506468-.05466175-.00239905-.01650676-.00533123-.03247232-.0090631-.04870849-.00426499-.01731857-.00959622-.03463714-.01519402-.05168511-.00586436-.01623617-.01172872-.03220172-.01892589-.04789668-.00719717-.01542436-.01519403-.0303075-.023724-.04519065-.00959623-.01650677-.01919245-.03247233-.03065461-.04789668-.00453155-.00622386-.00746373-.01298893-.01226185-.01921279-.00559779-.00703568-.0125284-.01217713-.01839276-.01894219-.00693061-.00757688-.01199528-.01650677-.01919245-.02381304-.00613092-.00622386-.01412778-.01136532-.02079182-.01704797-.01279497-.01136532-.02532338-.02246003-.03865147-.03220172-.01439433-.01082411-.02878867-.02110702-.04424926-.03003691-.01492746-.00865928-.0293218-.01677736-.04451582-.02408364-.01626027-.00784747-.03198742-.01434194-.04851425-.0208364-.01546059-.00568266-.03092117-.0100123-.04691488-.01434195-.01705996-.00460024-.03465304-.00811808-.05224611-.01082411-.01652684-.00243542-.03252055-.00432964-.04904738-.00487084-.01012935-.00054121-.01972557-.00324724-.02958836-.00324724l-2.97989452-.0002706c-.29215175 0-.52885864.2402952-.52885864.53660517 0 .29685116.23697345.53741697.52885864.53741697h1.71825745c-1.71799089 2.19079951-1.7814326 5.37795816.01999214 7.64560886 1.16460857 1.4663961 2.89406157 2.280369 4.68695637 2.280369.5531158 0 1.1120959-.077663 1.6622795-.237048.2809561-.0814514.4435588-.3788438.3630572-.6637884-.0794354-.2849447-.37292-.4494711-.6530765-.3682903z"/><path d="m18.4706103 13.9250074h-1.7169179c1.717451-2.1913936 1.7808925-5.37821082-.0207918-7.64727883-1.14941-1.44766755-2.8599305-2.27772857-4.6925358-2.27772857-.0005332 0-.0015994 0-.0023991 0-.5600442 0-1.1163565.07875701-1.6540096.23464718-.280955.0811928-.44355712.37835843-.3635889.66388643.0799682.28498671.3731851.4511613.653607.36915658.4435572-.12828462.9023083-.19323886 1.3639915-.19323886h.0021325c1.511133 0 2.920973.68418463 3.8688631 1.87771873 1.4506237 1.82683791 1.4324976 4.37439724.1116889 6.17498274l.0002666-1.6907046c0-.2966244-.2364394-.536955-.5288566-.536955-.2921506 0-.5288566.2406013-.5288566.536955l-.0002665 3.0257848c0 .0067661.0021325.0138028.0021325.0211102.0005331.0192156.0026656.0381606.0055977.0571056.0026657.0167798.0053313.0327477.0087965.0489863.004265.0170505.0095962.0338303.0157271.0508808.0055978.0165092.0119953.0332891.0191924.0489863.006664.015156.015194.0297707.0234574.0441148.0095961.0165092.0191923.0322065.0306544.0473625.0039985.0059541.0066641.0127202.0117287.0186743.0050647.0062248.0117287.0105551.0165268.0167798.0159936.0181331.032787.0351836.0509131.0511515.0111956.0092019.021858.0186743.0330535.0276056.0197255.014344.0399842.0262523.061309.0381606.0111956.0062247.021858.0135321.0335867.0184037.0255898.0116376.0519793.0200275.0797016.0278762.0082634.0021651.0165268.0056835.0247902.007578.0362523.0075779.0730376.0127202.111689.0127202l2.9790832.0002706c.2921506 0 .5291231-.2403307.5291231-.5366844-.0002666-.2979775-.2375056-.5383082-.5293897-.5383082z"/><path d="m20.2262844 2.62569042h-1.611827c-.4549662 0-.8689108-.22860751-1.1075816-.61146577l-1.2586156-2.01422465h-8.49678682l-1.25861552 2.01448833c-.23893717.38259458-.65261546.61120209-1.14194387.61120209h-1.57719841c-2.08117737 0-3.77371558 1.67540037-3.77371558 3.73497738v8.9040911c0 2.0598407 1.69253821 3.7352411 3.77371558 3.7352411h16.45256882c2.080911 0 3.7737156-1.6754004 3.7737156-3.7352411v-8.9040911c0-2.05957701-1.6928046-3.73497738-3.7737156-3.73497738zm2.7164786 12.63880488c0 1.4826528-1.2183931 2.6887091-2.7164786 2.6887091h-16.45256882c-1.49835181 0-2.71647854-1.2060563-2.71647854-2.6887091v-8.9038275c0-1.48238919 1.2183931-2.68818175 2.71647854-2.68818175h1.61156062c.82389371 0 1.5742683-.41423575 2.00712549-1.1077049l.94829022-1.51798551h7.31834979l.9482902 1.51772183c.4328572.69373283 1.1829654 1.10796858 2.0414877 1.10796858h1.5774648c1.4980855 0 2.7164786 1.20605624 2.7164786 2.68818175z"/></g></svg>