<svg height="23" viewBox="0 0 25 23" width="25" xmlns="http://www.w3.org/2000/svg"><g fill="#fff"><path d="m5.25 9h-4.5c-.42 0-.75.33-.75.75v4.5c0 .42.33.75.75.75h4.5c.42 0 .75-.33.75-.75v-4.5c0-.42-.33-.75-.75-.75zm-.75 4.5h-3v-3h3z"/><path d="m5.25 0h-4.5c-.42 0-.75.33-.75.75v4.5c0 .42.33.75.75.75h4.5c.42 0 .75-.33.75-.75v-4.5c0-.42-.33-.75-.75-.75zm-.75 4.5h-3v-3h3z"/><path d="m5.25 17h-4.5c-.42 0-.75.33-.75.75v4.5c0 .42.33.75.75.75h4.5c.42 0 .75-.33.75-.75v-4.5c0-.42-.33-.75-.75-.75zm-.75 4.5h-3v-3h3z"/><path d="m14.2727273 2h-6.54545457c-.40727273 0-.72727273.22-.72727273.5s.32.5.72727273.5h6.54545457c.4072727 0 .7272727-.22.7272727-.5s-.32-.5-.7272727-.5z"/><path d="m14.2727273 11h-6.54545457c-.40727273 0-.72727273.22-.72727273.5s.32.5.72727273.5h6.54545457c.4072727 0 .7272727-.22.7272727-.5s-.32-.5-.7272727-.5z"/><path d="m14.2727273 20h-6.54545457c-.40727273 0-.72727273.22-.72727273.5s.32.5.72727273.5h6.54545457c.4072727 0 .7272727-.22.7272727-.5s-.32-.5-.7272727-.5z"/><path d="m17.7272727 3h6.5454546c.4072727 0 .7272727-.22.7272727-.5s-.32-.5-.7272727-.5h-6.5454546c-.4072727 0-.7272727.22-.7272727.5s.32.5.7272727.5z"/><path d="m24.2727273 11h-6.5454546c-.4072727 0-.7272727.22-.7272727.5s.32.5.7272727.5h6.5454546c.4072727 0 .7272727-.22.7272727-.5s-.32-.5-.7272727-.5z"/><path d="m24.2727273 20h-6.5454546c-.4072727 0-.7272727.22-.7272727.5s.32.5.7272727.5h6.5454546c.4072727 0 .7272727-.22.7272727-.5s-.32-.5-.7272727-.5z"/></g></svg>