<svg height="25" viewBox="0 0 25 25" width="25" xmlns="http://www.w3.org/2000/svg"><g fill="#fff"><path d="m24.49981 25c-.1280167 0-.2560333-.0490076-.353546-.1465227l-23.99961994-23.99971997c-.19552541-.1955303-.19552541-.51157929 0-.7071096.19552542-.19553031.51156651-.19553031.70709193 0l23.99961991 23.99971997c.1955255.1955303.1955255.5115793 0 .7071096-.0975126.0975151-.2255293.1465227-.3535459.1465227z"/><path d="m6.00064281 22c-1.6545961 0-3.00064281-1.3453818-3.00064281-2.9989285 0-1.6548325 1.34604671-3.0010715 3.00064281-3.0010715 1.65373902 0 2.99935719 1.346239 2.99935719 3.0010715 0 1.6535467-1.34561817 2.9989285-2.99935719 2.9989285zm0-5.1427959c-1.18191558 0-2.14356117.961783-2.14356117 2.1438674 0 1.1812272.96164559 2.1417244 2.14356117 2.1417244 1.18148704 0 2.14227555-.9604972 2.14227555-2.1417244 0-1.1820844-.96078851-2.1438674-2.14227555-2.1438674z"/><path d="m19.0008571 18c-1.6547142 0-3.0008571-1.3454779-3.0008571-2.9991427 0-1.6545221 1.3461429-3.0008573 3.0008571-3.0008573 1.6534286 0 2.9991429 1.3463352 2.9991429 3.0008573 0 1.6536648-1.3457143 2.9991427-2.9991429 2.9991427zm0-5.1427347c-1.182 0-2.1437142.9614231-2.1437142 2.143592 0 1.1813116.9617142 2.1418774 2.1437142 2.1418774 1.1811429 0 2.142-.9605658 2.142-2.1418774 0-1.1821689-.9608571-2.143592-2.142-2.143592z"/><path d="m8.53839942 20c-.29773488 0-.53839942-.2374701-.53839942-.531253v-11.15365649c0-.22153249.13944545-.41968986.34888282-.49778405l12.92320118-4.78393316c.1669038-.06056284.350498-.03771896.4958659.06056284.1453678.09987556.2320501.26297023.2320501.43722121v11.15365645c0 .293783-.2406645.531253-.5383994.531253s-.5383994-.23747-.5383994-.531253v-10.38705839l-11.84640237 4.38549342v10.78549817c0 .2937829-.24066454.531253-.53839941.531253z"/><path d="m16.4286934 9c-.1730914 0-.336757-.11395641-.401452-.29896258-.0826897-.23898551.0291342-.50473003.2506397-.59423426l5.1430417-2.07797445c.221934-.08765878.4687177.03091125.5518358.26989677.0826897.23898552-.0291342.50473003-.2506397.59423426l-5.1430417 2.07797445c-.0496995.01937721-.1002559.02906581-.1503838.02906581z"/></g></svg>