<svg height="22" viewBox="0 0 20 22" width="20" xmlns="http://www.w3.org/2000/svg"><g fill="#fff"><path d="m9.99994393 1c-4.41116622 0-7.99994393 3.42660995-7.99994393 7.6384304 0 2.9761694 1.79220215 5.5599299 4.4000271 6.819957v4.5497312c0 1.0983525.93591035 1.9918814 2.08619268 1.9918814h3.02744832c1.1502823 0 2.0861927-.8936003 2.0861927-1.9918814v-4.5497669c2.6078249-1.2599557 4.4001392-3.8437519 4.4001392-6.81988561 0-4.21185614-3.5888898-7.63846609-8.00005607-7.63846609zm.62218337 13.9538412c-.2049523.0182375-.4124465.0280522-.62222075.0280522-.20992381 0-.41741796-.0098147-.62237029-.0280522.0463507-.885927.02384819-2.5789066-.63403272-4.0675267h2.51273126c-.6578435 1.4886558-.680346 3.1816711-.6341075 4.0675267zm1.6216017 3.7324356h-4.48757013v-2.7158483c.71219346.1990418 1.46505592.3062895 2.24378506.3062895.77872917 0 1.53159157-.107212 2.24378507-.3062895zm0 1.3218061c0 .3844144-.3274453.6970568-.7300609.6970568h-3.02744832c-.40261564 0-.73006091-.3127137-.73006091-.6970568v-.0269815h4.48757013zm-.2732822-5.3110295c-.0314737-.9978144.0555834-2.8432608.9816629-4.0819811.1475373-.1973644.167199-.4569004.0509484-.67250223-.1162131-.21560186-.3489759-.35104452-.6028955-.35104452h-4.8005121c-.2539196 0-.48657021.13551404-.60278338.35104452-.11636268.21560183-.0965515.47513783.05098577.67250223.92607951 1.2388274 1.01302446 3.0844522.98155084 4.0819811-2.7043017-.8034837-4.67327196-3.2156478-4.67327196-6.05865869 0-3.49784672 2.98031264-6.34360576 6.64381216-6.34360576 3.66349957 0 6.64392427 2.84575904 6.64392427 6.34360576 0 2.84304659-1.9691198 5.25521069-4.6734214 6.05865869z"/><path d="m1.88705591 3.74534792c.1273384.16973611.29413984.25465208.46094129.25465208.16690926 0 .33371071-.08491597.46104911-.2547.25460492-.33947221.25460492-.88984465 0-1.22931686l-1.69608425-2.26134304c-.25464086-.33952013-.66745736-.33952013-.92206228 0-.25453304.33952013-.25453304.88984464 0 1.22931685z"/><path d="m17.6520321 4c.1669053 0 .3337387-.08491597.4610381-.25465208l1.6958998-2.26129512c.2547067-.33952013.2547067-.88984465 0-1.2294127-.2547066-.33956805-.6674414-.33947221-.9220402 0l-1.6958998 2.26129512c-.2547067.33952013-.2547067.88994049 0 1.2294127.1273713.16973611.2941687.25465208.4610021.25465208z"/><path d="m18.1130609 14.254688c-.2546049-.3395201-.6673495-.3396159-.9220263-.0000958-.2547128.3395201-.2547128.8898446 0 1.2293168l1.6959404 2.2614389c.1273384.169784.2941399.2546521.4610492.2546521.1668014 0 .3336388-.084916.4609412-.2546521.2547128-.3393763.2547128-.8898446 0-1.2293168z"/><path d="m1.88705591 14.2546309-1.69615613 2.2613577c-.25453304.33946-.25453304.8898126 0 1.2293685.1273384.16973.29413985.2546429.46104911.2546429.16680145 0 .33374666-.0848171.46094129-.2546429l1.69615613-2.2613576c.25460492-.339508.25460492-.8898127 0-1.2293686-.25453304-.3395079-.66738548-.3395079-.9219904 0z"/></g></svg>