<?xml version="1.0" encoding="UTF-8"?>
<svg width="12px" height="21px" viewBox="0 0 12 21" version="1.1" xmlns="http://www.w3.org/2000/svg" xmlns:xlink="http://www.w3.org/1999/xlink">
    <!-- Generator: Sketch 55.2 (78181) - https://sketchapp.com -->
    <title>Flash Icon</title>
    <desc>Created with Sketch.</desc>
    <g id="Page-1" stroke="none" stroke-width="1" fill="none" fill-rule="evenodd">
        <g id="Question-screen" transform="translate(-67.000000, -531.000000)" fill="#FFFFFF">
            <path d="M69.356015,542.177135 L72.1105584,542.177135 C72.3585865,542.177135 72.5931003,542.293199 72.7441431,542.491145 C72.8943909,542.689885 72.9444735,542.947453 72.8761068,543.186737 L71.8776345,546.745782 L76.4892091,540.408345 L73.7362557,540.408345 C73.4874326,540.408345 73.2529188,540.29228 73.102671,540.094335 C72.9532181,539.896389 72.9039305,539.638821 72.9707073,539.399538 L73.9691796,535.839698 L69.356015,542.177135 Z M69.9164632,551.584715 C69.8003988,551.584715 69.6803595,551.559277 69.5706547,551.504424 C69.2240513,551.337482 69.0467748,550.945566 69.1509148,550.575114 L71.0620035,543.767059 L67.7939146,543.767059 C67.4958039,543.767059 67.220747,543.599322 67.0863984,543.33301 C66.9512549,543.065903 66.9758987,542.746328 67.1515853,542.503864 L75.2856366,531.328288 C75.5106109,531.017458 75.9287609,530.910138 76.2761593,531.081055 C76.6227628,531.248792 76.7976544,531.639914 76.6935144,532.011161 L74.7840156,538.81842 L78.0513095,538.81842 C78.3502152,538.81842 78.6236821,538.986157 78.7604156,539.25247 C78.8955591,539.519577 78.8709153,539.839947 78.6936388,540.081615 L70.5595875,551.257986 C70.4053649,551.469446 70.1636964,551.584715 69.9164632,551.584715 L69.9164632,551.584715 Z" id="Flash-Icon"></path>
        </g>
    </g>
</svg>