<svg height="21" viewBox="0 0 12 21" width="12" xmlns="http://www.w3.org/2000/svg"><path d="m69.356015 542.177135h2.7545434c.2480281 0 .4825419.116064.6335847.31401.1502478.19874.2003304.456308.1319637.695592l-.9984723 3.559045 4.6115746-6.337437h-2.7529534c-.2488231 0-.4833369-.116065-.6335847-.31401-.1494529-.197946-.1987405-.455514-.1319637-.694797l.9984723-3.55984zm.5604482 9.40758c-.1160644 0-.2361037-.025438-.3458085-.080291-.3466034-.166942-.5238799-.558858-.4197399-.92931l1.9110887-6.808055h-3.2680889c-.2981107 0-.5731676-.167737-.7075162-.434049-.1351435-.267107-.1104997-.586682.0651869-.829146l8.1340513-11.175576c.2249743-.31083.6431243-.41815.9905227-.247233.3466035.167737.5214951.558859.4173551.930106l-1.9094988 6.807259h3.2672939c.2989057 0 .5723726.167737.7091061.43405.1351435.267107.1104997.587477-.0667768.829145l-8.1340513 11.176371c-.1542226.21146-.3958911.326729-.6431243.326729z" fill="#fff" fill-rule="evenodd" transform="translate(-67 -531)"/></svg>