<?xml version="1.0" encoding="UTF-8"?>
<svg width="21px" height="17px" viewBox="0 0 21 17" version="1.1" xmlns="http://www.w3.org/2000/svg" xmlns:xlink="http://www.w3.org/1999/xlink">
    <!-- Generator: Sketch 55.2 (78181) - https://sketchapp.com -->
    <title>Flip Camera Icon</title>
    <desc>Created with Sketch.</desc>
    <g id="Page-1" stroke="none" stroke-width="1" fill="none" fill-rule="evenodd">
        <g id="Question-screen" transform="translate(-287.000000, -532.000000)" fill="#FFFFFF">
            <g id="Flip-Camera-Icon" transform="translate(287.000000, 532.000000)">
                <path d="M17.741782,10.3766935 C17.5574685,10.3766935 17.3739231,10.3114158 17.2287762,10.1800924 L14.8979791,8.08813482 C14.5815743,7.80398492 14.5562312,7.31939415 14.8396132,7.0029894 C15.1229951,6.6881206 15.6091218,6.66200953 15.9239906,6.94462348 L17.741782,8.57656546 L19.5611093,6.94462348 C19.8759781,6.66124156 20.3621048,6.68735263 20.6454867,7.0029894 C20.9288687,7.31939415 20.9035256,7.8047529 20.5871208,8.08813482 L18.2547877,10.1800924 C18.108105,10.3114158 17.9245595,10.3766935 17.741782,10.3766935" id="Fill-1"></path>
                <path d="M17.8572851,9.32971628 C17.4325962,9.32971628 17.0893124,8.98643248 17.0893124,8.56174358 C17.0893124,4.89544194 14.1057385,1.91186802 10.4386688,1.91186802 C8.15087819,1.91186802 6.05124084,3.06613098 4.82094859,4.99835028 C4.59439664,5.35468961 4.12055749,5.46066984 3.76114627,5.2341179 C3.40403897,5.00679798 3.29729076,4.53219086 3.52537865,4.17354761 C5.03905283,1.79513617 7.62328095,0.375922634 10.4386688,0.375922634 C14.9535803,0.375922634 18.6252578,4.04760009 18.6252578,8.56174358 C18.6252578,8.98643248 18.281974,9.32971628 17.8572851,9.32971628" id="Fill-3"></path>
                <path d="M10.4789874,16.8953993 C5.96561189,16.8953993 2.29239849,13.2229539 2.29239849,8.70804238 C2.29239849,8.28335348 2.63568229,7.94006969 3.06037119,7.94006969 C3.48506009,7.94006969 3.82834388,8.28335348 3.82834388,8.70804238 C3.82834388,12.375112 6.8119178,15.3594539 10.4789874,15.3594539 C12.7667781,15.3594539 14.8664154,14.204423 16.0974756,12.2706677 C16.3255635,11.9127924 16.8024746,11.8091161 17.1580459,12.0349001 C17.5166892,12.262988 17.6219014,12.7375951 17.3938136,13.0954704 C15.8786034,15.4746498 13.2928394,16.8953993 10.4789874,16.8953993" id="Fill-5"></path>
                <path d="M5.43171727,10.5229155 C5.24893977,10.5229155 5.06385835,10.4584057 4.91871151,10.3263144 L3.10092015,8.69360449 L1.28159283,10.3263144 C0.965188082,10.6089284 0.479061367,10.5835853 0.197215388,10.2679485 C-0.086934509,9.95231174 -0.0608234374,9.466953 0.255581313,9.18357107 L2.58791439,7.09007751 C2.88051198,6.82819882 3.32286425,6.82819882 3.6139259,7.09007751 L5.94472303,9.18357107 C6.25959184,9.466953 6.28647088,9.95231174 6.00308896,10.2679485 C5.85179834,10.4369025 5.64137382,10.5229155 5.43171727,10.5229155" id="Fill-7"></path>
            </g>
        </g>
    </g>
</svg>