<svg height="17" viewBox="0 0 21 17" width="21" xmlns="http://www.w3.org/2000/svg"><g fill="#fff" fill-rule="evenodd"><path d="m17.741782 10.3766935c-.1843135 0-.3678589-.0652777-.5130058-.1966011l-2.3307971-2.09195758c-.3164048-.2841499-.3417479-.76874067-.0583659-1.08514542.2833819-.3148688.7695086-.34097987 1.0843774-.05836592l1.8177914 1.63194198 1.8193273-1.63194198c.3148688-.28338192.8009955-.25727085 1.0843774.05836592.283382.31640475.2580389.8017635-.0583659 1.08514542l-2.3323331 2.09195758c-.1466827.1313234-.3302282.1966011-.5130057.1966011"/><path d="m17.8572851 9.32971628c-.4246889 0-.7679727-.3432838-.7679727-.7679727 0-3.66630164-2.9835739-6.64987556-6.6506436-6.64987556-2.28779061 0-4.38742796 1.15426296-5.61772021 3.08648226-.22655195.35633933-.7003911.46231956-1.05980232.23576762-.3571073-.22731992-.46385551-.70192704-.23576762-1.06057029 1.51367418-2.37841144 4.0979023-3.79762498 6.91329015-3.79762498 4.5149115 0 8.186589 3.67167746 8.186589 8.18582095 0 .4246889-.3432838.7679727-.7679727.7679727"/><path d="m10.4789874 16.8953993c-4.51337551 0-8.18658891-3.6724454-8.18658891-8.18735692 0-.4246889.3432838-.76797269.7679727-.76797269s.76797269.34328379.76797269.76797269c0 3.66706962 2.98357392 6.65141152 6.65064352 6.65141152 2.2877907 0 4.387428-1.1550309 5.6184882-3.0887862.2280879-.3578753.704999-.4615516 1.0605703-.2357676.3586433.2280879.4638555.702695.2357677 1.0605703-1.5152102 2.3791794-4.1009742 3.7999289-6.9148262 3.7999289"/><path d="m5.43171727 10.5229155c-.1827775 0-.36785892-.0645098-.51300576-.1966011l-1.81779136-1.63270991-1.81932732 1.63270991c-.31640475.282614-.80253146.2572709-1.08437744-.0583659-.2841499-.31563676-.25803883-.8009955.05836592-1.08437743l2.33233308-2.09349356c.29259759-.26187869.73494986-.26187869 1.02601151 0l2.33079713 2.09349356c.31486881.28338193.34174785.76874067.05836593 1.08437743-.15129062.168954-.36171514.254967-.57137169.254967"/></g></svg>