<svg height="24" viewBox="0 0 24 24" width="24" xmlns="http://www.w3.org/2000/svg"><g fill="none" opacity=".5"><g fill="#000"><path d="m8.17628571 16.7031429c0 .7536865.4540098 1.4331601 1.15032533 1.7215835.69631556.2884233 1.49780936.1289963 2.03074626-.4039406.5329368-.5329368.6923638-1.3344307.4039405-2.0307462s-.967897-1.1503253-1.7215835-1.1503253c-1.02875147.0009451-1.86248348.8346771-1.86342859 1.8634286zm1.86342859-1.0534286c.5817925 0 1.0534286.471636 1.0534286 1.0534286 0 .5817925-.4716361 1.0534285-1.0534286 1.0534285-.58179255 0-1.05342859-.471636-1.05342859-1.0534285.00047266-.5815967.47183193-1.052956 1.05342859-1.0534286z"/><path d="m10.4837143 13.2162857v-.9111428c-.0099597-.2164366-.1883345-.3867919-.405-.3867919-.21666557 0-.39504035.1703553-.40500001.3867919v.9111428c-.0068628.1491375.06879371.2899792.19692789.3665998.12813417.0766206.28801002.0766206.41614422 0s.2037907-.2174623.1969279-.3665998z"/><path d="m9.67371429 20.2868571v.9111429c.00995966.2164365.18833444.3867919.40500001.3867919.2166655 0 .3950403-.1703554.405-.3867919v-.9111429c.0068628-.1491374-.0687937-.2899791-.1969279-.3665998-.1281342-.0766206-.28801005-.0766206-.41614422 0-.12813418.0766207-.20379069.2174624-.19692789.3665998z"/><path d="m15.0102857 16.6354286c0-.223912-.1815165-.4054286-.4054286-.4054286h-.9111428c-.2164365.0099597-.3867919.1883344-.3867919.405s.1703554.3950403.3867919.405h.9111428c.2235778.0000005.4049559-.1809942.4054286-.4045714z"/><path d="m5.12485714 16.6354286c0 .223912.18151656.4054285.40542857.4054285h.91114286c.21643652-.0099596.38679187-.1883344.38679187-.405 0-.2166655-.17035535-.3950403-.38679187-.405h-.91114286c-.2235777-.0000005-.40495589.1809943-.40542857.4045715z"/><path d="m12.9874286 13.2934286-.6437143.6437143c-.1114385.1003035-.1584237.2539196-.1221608.3993992.036263.1454797.1498533.25907.2953329.2953329.1454797.036263.2990958-.0107222.3993993-.1221607l.6437143-.6437143c.1442613-.1602762.1378197-.4054329-.0146594-.557912-.1524792-.1524792-.3976359-.1589208-.557912-.0146594z"/><path d="m7.22485714 19.0988571-.64371428.6437143c-.14426135.1602762-.13781973.4054329.01465942.557912.15247915.1524792.39763585.1589208.55791201.0146595l.64371428-.6437143c.14426135-.1602762.13781973-.4054329-.01465942-.557912-.15247915-.1524792-.39763585-.1589208-.55791201-.0146595z"/><path d="m12.3437143 19.0988571c-.157803.1582388-.157803.4143327 0 .5725715l.6437143.6437143c.1602761.1442613.4054328.1378197.557912-.0146595.1524791-.1524791.1589207-.3976358.0146594-.557912l-.6437143-.6437143c-.1582388-.157803-.4143326-.157803-.5725714 0z"/><path d="m7.15371429 13.2934286c-.16027616-.1442614-.40543286-.1378198-.55791201.0146594-.15247915.1524791-.15892077.3976358-.01465942.557912l.64371428.6437143c.10030354.1114385.25391962.1584237.39939929.1221607.14547967-.0362629.25906996-.1498532.29533289-.2953329.03626293-.1454796-.01072227-.2990957-.12216075-.3993992z"/><path d="m18.744 9.426c-.0329611-.14486187-.1425139-.26009383-.2855265-.30032792-.1430127-.04023409-.2965773.00097439-.400234.10740124-.1036568.10642685-.1408019.26102463-.0968109.40292668l.7114285 2.6571429c.0329611.1448618.142514.2600938.2855266.3003279s.2965772-.0009744.400234-.1074013c.1036567-.1064268.1408018-.2610246.0968109-.4029266z"/><path d="m20.8131429 10.6251429c-.192999.0002008-.358983.136699-.3964527.3260258-.0374697.1893269.0640094.3787588.2423828.452458.1783733.0736991.3839678.0111419.491062-.1494179s.0858648-.3744097-.0507064-.5107802c-.0761166-.0756081-.1789998-.1181167-.2862857-.1182857z"/><path d="m16.9037143 10.3182857c-.1934747.0000319-.3599681.1367657-.3976132.3265427-.0376452.1897769.0640488.3797098.2428618.4535907.1788129.0738808.3849132.0111203.4922009-.1498822.1072876-.1610025.0858637-.3753788-.0511638-.5119655-.076064-.0756871-.1789812-.1182098-.2862857-.1182857z"/></g><path d="m23.3545714 10.7142857-3.18-3.04285713v-2.82857143c-.0056195-.2501077-.2127417-.44840802-.4628571-.44314285h-4.3251429c.687202-.60497059 1.0827679-1.47502827 1.0868572-2.39057143 0-.25562894-.2072282-.46285715-.4628572-.46285715-.2556289 0-.4628571.20722821-.4628571.46285715-.0137532 1.02833204-.6811606 1.93360684-1.6594286 2.25085714.236571-.35137555.3630952-.76526478.3634286-1.18885714-.0294962-1.24931603-1.0640221-2.23937922-2.3134286-2.214-.7203152-.00395611-1.4025489.32309895-1.8505714.88714285-.44820866-.56428131-1.13081316-.89136263-1.85142859-.88714285-1.24973797-.02585834-2.28479116.96434255-2.31428571 2.214.00058673.42368144.12741159.8375781.36428571 1.18885714-.97856336-.31735148-1.64604023-1.22306518-1.65942857-2.25171429 0-.25562894-.2072282-.46285714-.46285714-.46285714s-.46285714.2072282-.46285714.46285714c.00471254.91638144.40158761 1.78688572 1.09028571 2.39142858h-4.32857143c-.25011541-.00526517-.4572376.19303515-.46285714.44314285v5.31428576c.00561954.2501077.21274173.448408.46285714.4431428h.27771429v4.0285714c.00561954.2501077.21274173.4484081.46285714.4431429.25011542.0052652.4572376-.1930352.46285714-.4431429v-4.0285714h12.24857139v.2571429c.0005467.1183995.0494743.2314286.1354286.3128571l4.4142857 4.224c.0145715.0137143.03.0257143.0445715.0385714v6.7714286c-.0056196.2501077-.2127418.448408-.4628572.4431429h-15.91799999c-.25011541.0052651-.4572376-.1930352-.46285714-.4431429v-3.5922857c-.00561954-.2501077-.21274172-.448408-.46285714-.4431429-.25011542-.0052651-.4572376.1930352-.46285714.4431429v3.588c.01779031.7497797.63873726 1.3438956 1.38857142 1.3285714h15.91714289c.7498341.0153242 1.3707811-.5787917 1.3885714-1.3285714v-6.5142857c.2272884-.0346723.4384882-.1381781.6051429-.2965714l3.3154285-3.1714286c.2079936-.1953835.3259639-.4680586.3259639-.7534286s-.1179703-.5580451-.3259639-.7534286zm-4.1057143-3.92914284-.3085714-.29485715c-.0884776-.08358111-.2057164-.12992418-.3274286-.12942857h-4.05l-1.1142857-1.07571428h5.8028572zm-7.3105714-5.04257143c.7498342-.01532419 1.3707811.57879172 1.3885714 1.32857143-.0177903.74977971-.6387372 1.34389562-1.3885714 1.32857143h-1.3885714v-1.32857143c.0177903-.74977971.6387372-1.34389562 1.3885714-1.32857143zm-3.70199999 0c.74983417-.01532419 1.37078112.57879172 1.38857143 1.32857143v1.32857143h-1.38857143c-.74950261.01484537-1.36992257-.57913297-1.38771428-1.32857143.01779171-.74943846.63821167-1.34341681 1.38771428-1.32857143zm-7.31057142 3.54257143h7.40314285v4.428h-7.40314285zm8.32885714 4.428v-4.428h1.66542857v4.428zm2.59114287 0v-4.428h.2914286l1.7751428 1.69885714v2.72914286zm10.8548571 1.87885714-3.3154285 3.1714286c-.0737143.0702857-.2665715 0-.2665715 0l-4.2788571-4.0945715v-3.42857139h3.5802857l4.2788571 4.09371429c.0369001.0325428.0580393.0793713.0580393.1285714s-.0211392.0960286-.0580393.1285715z" fill="#2a2e43"/><path d="m1.05342857 17.04c.19344092.0003776.36020425-.1359575.39828599-.3256133.03808175-.1896557-.06312689-.379798-.24171971-.4541225-.17859281-.0743246-.38481748-.0121261-.49253273.1485504-.10771525.1606766-.0869138.37507.04968074.5120425.07602972.0758436.17889609.1186533.28628571.1191429z" fill="#000"/></g></svg>