<?xml version="1.0" encoding="UTF-8"?>
<svg width="24px" height="24px" viewBox="0 0 24 24" version="1.1" xmlns="http://www.w3.org/2000/svg" xmlns:xlink="http://www.w3.org/1999/xlink">
    <!-- Generator: Sketch 55.2 (78181) - https://sketchapp.com -->
    <title>gift-3</title>
    <desc>Created with Sketch.</desc>
    <g id="Page-1" stroke="none" stroke-width="1" fill="none" fill-rule="evenodd">
        <g id="Intro-video" transform="translate(-68.000000, -496.000000)" fill="#FFFFFF" fill-rule="nonzero">
            <g id="gift-3" transform="translate(68.000000, 496.000000)">
                <path d="M8.17628571,16.7031429 C8.17628571,17.4568294 8.63029551,18.136303 9.32661104,18.4247264 C10.0229266,18.7131497 10.8244204,18.5537227 11.3573573,18.0207858 C11.8902941,17.487849 12.0497211,16.6863551 11.7612978,15.9900396 C11.4728745,15.2937241 10.7934008,14.8397143 10.0397143,14.8397143 C9.01096283,14.8406594 8.17723082,15.6743914 8.17628571,16.7031429 Z M10.0397143,15.6497143 C10.6215068,15.6497143 11.0931429,16.1213503 11.0931429,16.7031429 C11.0931429,17.2849354 10.6215068,17.7565714 10.0397143,17.7565714 C9.45792175,17.7565714 8.98628571,17.2849354 8.98628571,16.7031429 C8.98675837,16.1215462 9.45811764,15.6501869 10.0397143,15.6497143 L10.0397143,15.6497143 Z" id="XMLID_1293_"></path>
                <path d="M10.4837143,13.2162857 L10.4837143,12.3051429 C10.4737546,12.0887063 10.2953798,11.918351 10.0787143,11.918351 C9.86204873,11.918351 9.68367395,12.0887063 9.67371429,12.3051429 L9.67371429,13.2162857 C9.66685149,13.3654232 9.742508,13.5062649 9.87064218,13.5828855 C9.99877635,13.6595061 10.1586522,13.6595061 10.2867864,13.5828855 C10.4149206,13.5062649 10.4905771,13.3654232 10.4837143,13.2162857 L10.4837143,13.2162857 Z" id="XMLID_1294_"></path>
                <path d="M9.67371429,20.2868571 L9.67371429,21.198 C9.68367395,21.4144365 9.86204873,21.5847919 10.0787143,21.5847919 C10.2953798,21.5847919 10.4737546,21.4144365 10.4837143,21.198 L10.4837143,20.2868571 C10.4905771,20.1377197 10.4149206,19.996878 10.2867864,19.9202573 C10.1586522,19.8436367 9.99877635,19.8436367 9.87064218,19.9202573 C9.742508,19.996878 9.66685149,20.1377197 9.67371429,20.2868571 L9.67371429,20.2868571 Z" id="XMLID_1295_"></path>
                <path d="M15.0102857,16.6354286 C15.0102857,16.4115166 14.8287692,16.23 14.6048571,16.23 L13.6937143,16.23 C13.4772778,16.2399597 13.3069224,16.4183344 13.3069224,16.635 C13.3069224,16.8516656 13.4772778,17.0300403 13.6937143,17.04 L14.6048571,17.04 C14.8284349,17.0400005 15.009813,16.8590058 15.0102857,16.6354286 L15.0102857,16.6354286 Z" id="XMLID_1296_"></path>
                <path d="M5.12485714,16.6354286 C5.12485714,16.8593406 5.3063737,17.0408571 5.53028571,17.0408571 L6.44142857,17.0408571 C6.65786509,17.0308975 6.82822044,16.8525227 6.82822044,16.6358571 C6.82822044,16.4191916 6.65786509,16.2408168 6.44142857,16.2308571 L5.53028571,16.2308571 C5.30670801,16.2308566 5.12532982,16.4118514 5.12485714,16.6354286 L5.12485714,16.6354286 Z" id="XMLID_1297_"></path>
                <path d="M12.9874286,13.2934286 L12.3437143,13.9371429 C12.2322758,14.0374464 12.1852906,14.1910625 12.2215535,14.3365421 C12.2578165,14.4820218 12.3714068,14.5956121 12.5168864,14.631875 C12.6623661,14.668138 12.8159822,14.6211528 12.9162857,14.5097143 L13.56,13.866 C13.7042613,13.7057238 13.6978197,13.4605671 13.5453406,13.308088 C13.3928614,13.1556088 13.1477047,13.1491672 12.9874286,13.2934286 L12.9874286,13.2934286 Z" id="XMLID_1299_"></path>
                <path d="M7.22485714,19.0988571 L6.58114286,19.7425714 C6.43688151,19.9028476 6.44332313,20.1480043 6.59580228,20.3004834 C6.74828143,20.4529626 6.99343813,20.4594042 7.15371429,20.3151429 L7.79742857,19.6714286 C7.94168992,19.5111524 7.9352483,19.2659957 7.78276915,19.1135166 C7.63029,18.9610374 7.3851333,18.9545958 7.22485714,19.0988571 L7.22485714,19.0988571 Z" id="XMLID_1304_"></path>
                <path d="M12.3437143,19.0988571 C12.1859113,19.2570959 12.1859113,19.5131898 12.3437143,19.6714286 L12.9874286,20.3151429 C13.1477047,20.4594042 13.3928614,20.4529626 13.5453406,20.3004834 C13.6978197,20.1480043 13.7042613,19.9028476 13.56,19.7425714 L12.9162857,19.0988571 C12.7580469,18.9410541 12.5019531,18.9410541 12.3437143,19.0988571 L12.3437143,19.0988571 Z" id="XMLID_1305_"></path>
                <path d="M7.15371429,13.2934286 C6.99343813,13.1491672 6.74828143,13.1556088 6.59580228,13.308088 C6.44332313,13.4605671 6.43688151,13.7057238 6.58114286,13.866 L7.22485714,14.5097143 C7.32516068,14.6211528 7.47877676,14.668138 7.62425643,14.631875 C7.7697361,14.5956121 7.88332639,14.4820218 7.91958932,14.3365421 C7.95585225,14.1910625 7.90886705,14.0374464 7.79742857,13.9371429 L7.15371429,13.2934286 Z" id="XMLID_1306_"></path>
                <path d="M18.744,9.426 C18.7110389,9.28113813 18.6014861,9.16590617 18.4584735,9.12567208 C18.3154608,9.08543799 18.1618962,9.12664647 18.0582395,9.23307332 C17.9545827,9.33950017 17.9174376,9.49409795 17.9614286,9.636 L18.6728571,12.2931429 C18.7058182,12.4380047 18.8153711,12.5532367 18.9583837,12.5934708 C19.1013963,12.6337049 19.2549609,12.5924964 19.3586177,12.4860695 C19.4622744,12.3796427 19.4994195,12.2250449 19.4554286,12.0831429 L18.744,9.426 Z" id="XMLID_1307_"></path>
                <path d="M20.8131429,10.6251429 C20.6201439,10.6253437 20.4541599,10.7618419 20.4166902,10.9511687 C20.3792205,11.1404956 20.4806996,11.3299275 20.659073,11.4036267 C20.8374463,11.4773258 21.0430408,11.4147686 21.150135,11.2542088 C21.2572292,11.093649 21.2359998,10.8797991 21.0994286,10.7434286 C21.023312,10.6678205 20.9204288,10.6253119 20.8131429,10.6251429 L20.8131429,10.6251429 Z" id="XMLID_1327_"></path>
                <path d="M16.9037143,10.3182857 C16.7102396,10.3183176 16.5437462,10.4550514 16.5061011,10.6448284 C16.4684559,10.8346053 16.5701499,11.0245382 16.7489629,11.0984191 C16.9277758,11.1722999 17.1338761,11.1095394 17.2411638,10.9485369 C17.3484514,10.7875344 17.3270275,10.5731581 17.19,10.4365714 C17.113936,10.3608843 17.0110188,10.3183616 16.9037143,10.3182857 L16.9037143,10.3182857 Z" id="XMLID_1328_"></path>
                <path d="M23.3545714,10.7142857 L20.1745714,7.67142857 L20.1745714,4.84285714 C20.1689519,4.59274944 19.9618297,4.39444912 19.7117143,4.39971429 L15.3865714,4.39971429 C16.0737734,3.7947437 16.4693393,2.92468602 16.4734286,2.00914286 C16.4734286,1.75351392 16.2662004,1.54628571 16.0105714,1.54628571 C15.7549425,1.54628571 15.5477143,1.75351392 15.5477143,2.00914286 C15.5339611,3.0374749 14.8665537,3.9427497 13.8882857,4.26 C14.1248567,3.90862445 14.2513809,3.49473522 14.2517143,3.07114286 C14.2222181,1.82182683 13.1876922,0.831763639 11.9382857,0.857142857 C11.2179705,0.853186747 10.5357368,1.18024181 10.0877143,1.74428571 C9.63950564,1.1800044 8.95690114,0.852923076 8.23628571,0.857142857 C6.98654774,0.831284523 5.95149455,1.82148541 5.922,3.07114286 C5.92258673,3.4948243 6.04941159,3.90872096 6.28628571,4.26 C5.30772235,3.94264852 4.64024548,3.03693482 4.62685714,2.00828571 C4.62685714,1.75265677 4.41962894,1.54542857 4.164,1.54542857 C3.90837106,1.54542857 3.70114286,1.75265677 3.70114286,2.00828571 C3.7058554,2.92466715 4.10273047,3.79517143 4.79142857,4.39971429 L0.462857143,4.39971429 C0.212741726,4.39444912 0.00561954047,4.59274944 -5.55111512e-16,4.84285714 L-5.55111512e-16,10.1571429 C0.00561954047,10.4072506 0.212741726,10.6055509 0.462857143,10.6002857 L0.740571429,10.6002857 L0.740571429,14.6288571 C0.746190969,14.8789648 0.953313155,15.0772652 1.20342857,15.072 C1.45354399,15.0772652 1.66066617,14.8789648 1.66628571,14.6288571 L1.66628571,10.6002857 L13.9148571,10.6002857 L13.9148571,10.8574286 C13.9154038,10.9758281 13.9643314,11.0888572 14.0502857,11.1702857 L18.4645714,15.3942857 C18.4791429,15.408 18.4945714,15.42 18.5091429,15.4328571 L18.5091429,22.2042857 C18.5035233,22.4543934 18.2964011,22.6526937 18.0462857,22.6474286 L2.12828571,22.6474286 C1.8781703,22.6526937 1.67104811,22.4543934 1.66542857,22.2042857 L1.66542857,18.612 C1.65980903,18.3618923 1.45268685,18.163592 1.20257143,18.1688571 C0.952456012,18.163592 0.745333826,18.3618923 0.739714286,18.612 L0.739714286,22.2 C0.757504595,22.9497797 1.37845155,23.5438956 2.12828571,23.5285714 L18.0454286,23.5285714 C18.7952627,23.5438956 19.4162097,22.9497797 19.434,22.2 L19.434,15.6857143 C19.6612884,15.651042 19.8724882,15.5475362 20.0391429,15.3891429 L23.3545714,12.2177143 C23.562565,12.0223308 23.6805353,11.7496557 23.6805353,11.4642857 C23.6805353,11.1789157 23.562565,10.9062406 23.3545714,10.7108571 L23.3545714,10.7142857 Z M19.2488571,6.78514286 L18.9402857,6.49028571 C18.8518081,6.4067046 18.7345693,6.36036153 18.6128571,6.36085714 L14.5628571,6.36085714 L13.4485714,5.28514286 L19.2514286,5.28514286 L19.2488571,6.78514286 Z M11.9382857,1.74257143 C12.6881199,1.72724724 13.3090668,2.32136315 13.3268571,3.07114286 C13.3090668,3.82092257 12.6881199,4.41503848 11.9382857,4.39971429 L10.5497143,4.39971429 L10.5497143,3.07114286 C10.5675046,2.32136315 11.1884515,1.72724724 11.9382857,1.74257143 Z M8.23628571,1.74257143 C8.98611988,1.72724724 9.60706683,2.32136315 9.62485714,3.07114286 L9.62485714,4.39971429 L8.23628571,4.39971429 C7.4867831,4.41455966 6.86636314,3.82058132 6.84857143,3.07114286 C6.86636314,2.3217044 7.4867831,1.72772605 8.23628571,1.74257143 L8.23628571,1.74257143 Z M0.925714286,5.28514286 L8.32885714,5.28514286 L8.32885714,9.71314286 L0.925714286,9.71314286 L0.925714286,5.28514286 Z M9.25457143,9.71314286 L9.25457143,5.28514286 L10.92,5.28514286 L10.92,9.71314286 L9.25457143,9.71314286 Z M11.8457143,9.71314286 L11.8457143,5.28514286 L12.1371429,5.28514286 L13.9122857,6.984 L13.9122857,9.71314286 L11.8457143,9.71314286 Z M22.7005714,11.592 L19.3851429,14.7634286 C19.3114286,14.8337143 19.1185714,14.7634286 19.1185714,14.7634286 L14.8397143,10.6688571 L14.8397143,7.24028571 L18.42,7.24028571 L22.6988571,11.334 C22.7357572,11.3665428 22.7568964,11.4133713 22.7568964,11.4625714 C22.7568964,11.5117715 22.7357572,11.5586 22.6988571,11.5911429 L22.7005714,11.592 Z" id="XMLID_1379_"></path>
                <path d="M1.05342857,17.04 C1.24686949,17.0403776 1.41363282,16.9040425 1.45171456,16.7143867 C1.48979631,16.524731 1.38858767,16.3345887 1.20999485,16.2602642 C1.03140204,16.1859396 0.825177367,16.2481381 0.71746212,16.4088146 C0.609746873,16.5694912 0.630548321,16.7838846 0.767142857,16.9208571 C0.84317258,16.9967007 0.946038948,17.0395104 1.05342857,17.04 L1.05342857,17.04 Z" id="XMLID_1515_"></path>
            </g>
        </g>
    </g>
</svg>