<?xml version="1.0" encoding="UTF-8"?>
<svg width="28px" height="24px" viewBox="0 0 28 24" version="1.1" xmlns="http://www.w3.org/2000/svg" xmlns:xlink="http://www.w3.org/1999/xlink">
    <!-- Generator: Sketch 55.2 (78181) - https://sketchapp.com -->
    <title>health</title>
    <desc>Created with Sketch.</desc>
    <g id="Page-1" stroke="none" stroke-width="1" fill="none" fill-rule="evenodd" opacity="0.5">
        <g id="Dashboard---2-expanded-watch-video" transform="translate(-23.000000, -923.000000)" fill="#2A2E43" fill-rule="nonzero">
            <g id="Tab-Bar" transform="translate(0.000000, 895.000000)">
                <g id="health" transform="translate(23.000000, 28.000000)">
                    <g id="Group_26" transform="translate(22.000000, 3.000000)">
                        <g id="Group_25">
                            <path d="M0.566,0 C0.253406832,0 0,0.253406832 0,0.566 C0,0.878593168 0.253406832,1.132 0.566,1.132 C0.878593168,1.132 1.132,0.878593168 1.132,0.566 C1.13144958,0.253635109 0.878364891,0.000550423997 0.566,0 L0.566,0 Z" id="Path_90"></path>
                        </g>
                    </g>
                    <g id="Group_28">
                        <g id="Group_27">
                            <path d="M25.1878667,2.17476923 C23.941006,0.778971006 22.1439468,-0.0142370698 20.2608,-0.000188414224 C18.1749377,-0.00393406603 16.1779774,0.83502249 14.7326667,2.32246154 C14.2832436,2.77299541 13.8816799,3.2678875 13.5342667,3.79938462 C13.1868109,3.26791784 12.7852505,2.77302989 12.3358667,2.32246154 C10.890556,0.83502249 8.89359559,-0.00393406603 6.80773333,-0.000188414224 C2.8,-0.000188414224 0,3.31753846 0,7.26276923 C0,12.5916923 5.7092,17.0778462 13.1870667,23.4876923 C13.3857172,23.6582132 13.6809495,23.6582132 13.8796,23.4876923 C21.3733333,17.0630769 27.0666667,12.5861538 27.0666667,7.26276923 C27.0920421,5.39636024 26.4234481,3.58573326 25.1878667,2.17476923 Z M13.5333333,22.4003077 C6.47266667,16.3569231 1.05746667,12.0166154 1.05746667,7.26276923 C1.05746667,3.71815385 3.52893333,1.04570902 6.8068,1.04570902 C8.59906463,1.03429694 10.3171533,1.75270496 11.5574667,3.03230769 C12.163755,3.62776034 12.6681136,4.31675023 13.0508,5.07230769 C13.1360116,5.25984447 13.3245132,5.38051825 13.5324,5.38061538 L13.5324,5.38061538 C13.740555,5.38064664 13.9293952,5.25998991 14.0149333,5.07230769 C14.3976339,4.31675876 14.901991,3.62777102 15.5082667,3.03230769 C16.74858,1.75270496 18.4666687,1.03429694 20.2589333,1.04570902 C23.5368,1.04570902 26.0082667,3.72276923 26.0082667,7.26276923 C26.0092,12.1246154 20.2374667,16.6633846 13.5333333,22.4003077 Z" id="Path_91"></path>
                        </g>
                    </g>
                    <g id="Group_30" transform="translate(21.000000, 3.000000)">
                        <g id="Group_29">
                            <path d="M2.999,1.18545455 C2.91255056,1.01102751 2.72678639,0.894604989 2.51671498,0.883195838 C2.30664356,0.871786686 2.10695345,0.967274868 1.99827511,1.13110435 C1.88959678,1.29493384 1.88987598,1.5000519 1.999,1.66363636 C2.38034397,2.33866221 2.57917354,3.08661045 2.579,3.84545455 C2.579,5.33363636 1.8,6.91272727 0.127,8.81545455 C-0.0682326591,9.03762364 -0.0283860018,9.36160667 0.216,9.53909091 C0.460386002,9.71657514 0.816767341,9.68035091 1.012,9.45818182 C2.854,7.36727273 3.71200925,5.58 3.71200925,3.84545455 C3.71374279,2.91949383 3.46912255,2.00688534 2.999,1.18545455 Z" id="Path_92"></path>
                        </g>
                    </g>
                    <g id="Group_32" transform="translate(8.000000, 6.000000)">
                        <g id="Group_31">
                            <path d="M10.5609231,4.39957143 L7.63384615,4.39957143 L7.63384615,1.45228571 C7.63384615,1.16202063 7.39993216,0.926714286 7.11138462,0.926714286 L3.97292308,0.926714286 C3.68437554,0.926714286 3.45046154,1.16202063 3.45046154,1.45228571 L3.45046154,4.39771429 L0.522461538,4.39771429 C0.233913998,4.39771429 0,4.63302063 0,4.92328571 L0,8.08042857 C0,8.37069366 0.233913998,8.606 0.522461538,8.606 L3.45046154,8.606 L3.45046154,11.5514286 C3.45046154,11.8416937 3.68437554,12.077 3.97292308,12.077 L7.11138462,12.077 C7.39993216,12.077 7.63384615,11.8416937 7.63384615,11.5514286 L7.63384615,8.606 L10.5618462,8.606 C10.8503937,8.606 11.0843077,8.37069366 11.0843077,8.08042857 L11.0843077,4.92328571 C11.0832898,4.6333834 10.8491113,4.39905742 10.5609231,4.39957143 Z M10.0384615,7.55671429 L7.10769231,7.55671429 C6.81914477,7.55671429 6.58523077,7.79202063 6.58523077,8.08228571 L6.58523077,11.0277143 L4.49353846,11.0277143 L4.49353846,8.08228571 C4.49353846,7.79202063 4.25962446,7.55671429 3.97107692,7.55671429 L1.04307692,7.55671429 L1.04307692,5.45257143 L3.96923077,5.45257143 C4.25777831,5.45257143 4.49169231,5.21726508 4.49169231,4.927 L4.49169231,1.98157143 L6.58338462,1.98157143 L6.58338462,4.927 C6.58338462,5.06639021 6.63842951,5.20007136 6.73641006,5.29863512 C6.8343906,5.39719888 6.96728074,5.45257143 7.10584615,5.45257143 L10.0338462,5.45257143 L10.0384615,7.55671429 Z" id="Path_93"></path>
                        </g>
                    </g>
                </g>
            </g>
        </g>
    </g>
</svg>