<?xml version="1.0" encoding="UTF-8" standalone="no"?>
<!DOCTYPE svg PUBLIC "-//W3C//DTD SVG 1.1//EN" "http://www.w3.org/Graphics/SVG/1.1/DTD/svg11.dtd">
<svg width="100%" height="100%" viewBox="0 0 196 169" version="1.1" xmlns="http://www.w3.org/2000/svg" xmlns:xlink="http://www.w3.org/1999/xlink" xml:space="preserve" xmlns:serif="http://www.serif.com/" style="fill-rule:evenodd;clip-rule:evenodd;stroke-linecap:round;stroke-linejoin:round;stroke-miterlimit:1.5;">
    <g transform="matrix(1.22642,0,0,1.42697,-976.491,-661.246)">
        <path d="M877,580.422C877,580.422 898.039,569.2 917.371,553.813C923.077,549.272 927.634,545.156 932.458,539.888C934.841,537.285 938.045,533.102 940,531C941.541,529.343 967.961,498.796 936,475C936,475 898.604,447.612 878,493L877,496.141C877,496.141 863.308,456.245 824,470C823.511,467.898 783.014,492.055 812,531C812.102,531.558 816.179,537.424 823.108,543.444C836.972,555.49 860.823,573.624 877,580.422Z" style="fill:none;stroke:rgb(34,34,34);stroke-width:3.76px;"/>
    </g>
    <g transform="matrix(1.22642,0,0,1.22642,-978.944,-566.401)">
        <path d="M807,521L831,521L844,490L863,578L877,510L891,538L904,517L953,517" style="fill:none;stroke:rgb(34,34,34);stroke-width:4.08px;"/>
    </g>
    <g id="_x38_">
    </g>
</svg>
