<svg height="24" viewBox="0 0 28 24" width="28" xmlns="http://www.w3.org/2000/svg"><g fill="#7564ab"><path d="m.566 0c-.31259317 0-.566.25340683-.566.566s.25340683.566.566.566.566-.25340683.566-.566c-.00055042-.31236489-.25363511-.56544958-.566-.566z" transform="translate(22 3)"/><path d="m25.1878667 2.17476923c-1.2468607-1.39579822-3.0439199-2.1890063-4.9270667-2.17495764-2.0858623-.00374566-4.0828226.8352109-5.5281333 2.32264995-.4494231.45053387-.8509868.94542596-1.1984 1.47692308-.3474558-.53146678-.7490162-1.02635473-1.1984-1.47692308-1.4453107-1.48743905-3.44227111-2.32639561-5.52813337-2.32264995-4.00773333 0-6.80773333 3.31772687-6.80773333 7.26295764 0 5.32892307 5.7092 9.81507697 13.1870667 16.22492307.1986505.1705209.4938828.1705209.6925333 0 7.4937333-6.4246154 13.1870667-10.9015385 13.1870667-16.22492307.0253754-1.86640899-.6432186-3.67703597-1.8788-5.088zm-11.6545334 20.22553847c-7.06066663-6.0433846-12.47586663-10.3836923-12.47586663-15.13753847 0-3.54461538 2.47146666-6.21706021 5.74933333-6.21706021 1.79226463-.01141208 3.5103533.70699594 4.7506667 1.98659867.6062883.59545265 1.1106469 1.28444254 1.4933333 2.04.0852116.18753678.2737132.30821056.4816.30830769.208155.00003126.3969952-.12062547.4825333-.30830769.3827006-.75554893.8870577-1.44453667 1.4933334-2.04 1.2403133-1.27960273 2.958402-1.99801075 4.7506666-1.98659867 3.2778667 0 5.7493334 2.67706021 5.7493334 6.21706021.0009333 4.86184617-5.7708 9.40061537-12.4749334 15.13753847z"/><path d="m2.999 1.18545455c-.08644944-.17442704-.27221361-.29084956-.48228502-.30225871-.21007142-.01140915-.40976153.08407903-.51843987.24790851-.10867833.16382949-.10839913.36894755.00072489.53253201.38134397.67502585.58017354 1.42297409.58 2.18181819 0 1.48818181-.779 3.06727272-2.452 4.97-.19523266.22216909-.155386.54615212.089.72363636.244386.17748423.60076734.14126.796-.08090909 1.842-2.09090909 2.70000925-3.87818182 2.70000925-5.61272727.00173354-.92596072-.2428867-1.83856921-.71300925-2.66z" transform="translate(21 3)"/><path d="m10.5609231 4.39957143h-2.92707695v-2.94728572c0-.29026508-.23391399-.52557142-.52246153-.52557142h-3.13846154c-.28854754 0-.52246154.23530634-.52246154.52557142v2.94542858h-2.928c-.28854754 0-.52246154.23530634-.52246154.52557142v3.15714286c0 .29026509.233914.52557143.52246154.52557143h2.928v2.9454286c0 .2902651.233914.5255714.52246154.5255714h3.13846154c.28854754 0 .52246153-.2353063.52246153-.5255714v-2.9454286h2.92800005c.2885475 0 .5224615-.23530634.5224615-.52557143v-3.15714286c-.0010179-.28990231-.2351964-.52422829-.5233846-.52371428zm-.5224616 3.15714286h-2.93076919c-.28854754 0-.52246154.23530634-.52246154.52557142v2.94542859h-2.09169231v-2.94542859c0-.29026508-.233914-.52557142-.52246154-.52557142h-2.928v-2.10414286h2.92615385c.28854754 0 .52246154-.23530635.52246154-.52557143v-2.94542857h2.09169231v2.94542857c0 .13939021.05504489.27307136.15302544.37163512.09798054.09856376.23087068.15393631.36943609.15393631h2.92800005z" transform="translate(8 6)"/></g></svg>