<?xml version="1.0" encoding="UTF-8"?>
<svg width="32px" height="42px" viewBox="0 0 32 42" version="1.1" xmlns="http://www.w3.org/2000/svg" xmlns:xlink="http://www.w3.org/1999/xlink">
    <!-- Generator: Sketch 55.2 (78181) - https://sketchapp.com -->
    <title>Shape</title>
    <desc>Created with Sketch.</desc>
    <g id="Page-1" stroke="none" stroke-width="1" fill="none" fill-rule="evenodd">
        <g id="Dashboard---Account-locked" transform="translate(-164.000000, -189.000000)" fill="#FFFFFF">
            <path d="M192,203 L190,203 L190,199 C190,193.48 185.52,189 180,189 C174.48,189 170,193.48 170,199 L170,203 L168,203 C165.8,203 164,204.8 164,207 L164,227 C164,229.2 165.8,231 168,231 L192,231 C194.2,231 196,229.2 196,227 L196,207 C196,204.8 194.2,203 192,203 L192,203 Z M180,221 C177.8,221 176,219.2 176,217 C176,214.8 177.8,213 180,213 C182.2,213 184,214.8 184,217 C184,219.2 182.2,221 180,221 L180,221 Z M186,203 L174,203 L174,199.078431 C174,195.72549 176.690323,193 180,193 C183.309677,193 186,195.72549 186,199.078431 L186,203 L186,203 Z" id="Shape"></path>
        </g>
    </g>
</svg>