<?xml version="1.0" encoding="UTF-8" standalone="no"?>
<!DOCTYPE svg PUBLIC "-//W3C//DTD SVG 1.1//EN" "http://www.w3.org/Graphics/SVG/1.1/DTD/svg11.dtd">
<svg width="100%" height="100%" viewBox="0 0 157 186" version="1.1" xmlns="http://www.w3.org/2000/svg" xmlns:xlink="http://www.w3.org/1999/xlink" xml:space="preserve" xmlns:serif="http://www.serif.com/" style="fill-rule:evenodd;clip-rule:evenodd;stroke-linejoin:round;stroke-miterlimit:2;">
    <g id="Layer_1" transform="matrix(1,0,0,1,-601,-598)">
        <g id="_x38_">
            <path d="M681.09,776.4C670.29,776.4 661.5,767.61 661.5,756.81C661.5,755.21 662.8,753.91 664.4,753.91C666,753.91 667.3,755.21 667.3,756.81C667.3,764.41 673.48,770.59 681.08,770.59C688.68,770.59 694.86,764.41 694.86,756.81C694.86,755.21 696.16,753.91 697.76,753.91C699.36,753.91 700.66,755.21 700.66,756.81C700.68,767.61 691.9,776.4 681.09,776.4Z" style="fill:rgb(34,34,34);fill-rule:nonzero;"/>
            <path d="M750.85,759.48L611.33,759.48C610.32,759.48 609.38,758.95 608.85,758.09C608.32,757.22 608.28,756.15 608.75,755.25L619.8,733.84C622.16,729.26 623.41,724.11 623.41,718.96L623.41,673.78C623.41,646.58 642.25,623.28 668.55,617.47L668.55,614.1C668.55,608.28 673.29,603.54 679.11,603.54L683.07,603.54C688.89,603.54 693.63,608.28 693.63,614.1L693.63,617.47C719.93,623.28 738.77,646.58 738.77,673.78L738.77,718.96C738.77,724.12 740.02,729.26 742.38,733.84L753.43,755.25C753.89,756.15 753.86,757.23 753.33,758.09C752.8,758.95 751.86,759.48 750.85,759.48ZM616.1,753.67L746.08,753.67L737.22,736.5C734.43,731.1 732.96,725.03 732.96,718.95L732.96,673.77C732.96,648.57 714.98,627.1 690.22,622.7C688.83,622.45 687.82,621.25 687.82,619.84L687.82,614.08C687.82,611.46 685.69,609.33 683.07,609.33L679.11,609.33C676.49,609.33 674.36,611.46 674.36,614.08L674.36,619.84C674.36,621.25 673.35,622.45 671.96,622.7C647.19,627.09 629.22,648.57 629.22,673.77L629.22,718.95C629.22,725.03 627.75,731.1 624.96,736.5L616.1,753.67Z" style="fill:rgb(34,34,34);fill-rule:nonzero;"/>
            <path d="M644.63,697.79C643.03,697.79 641.73,696.49 641.73,694.89L641.73,677.69C641.73,659.99 652.89,644.01 669.49,637.91C671,637.36 672.67,638.13 673.22,639.64C673.77,641.15 673,642.82 671.49,643.37C657.16,648.63 647.53,662.43 647.53,677.7L647.53,694.9C647.53,696.49 646.23,697.79 644.63,697.79Z" style="fill:rgb(34,34,34);fill-rule:nonzero;"/>
        </g>
    </g>
</svg>
