<svg height="22" viewBox="0 0 23 22" width="23" xmlns="http://www.w3.org/2000/svg"><path d="m15.8460061 10.6193354c2.2318046-2.49069432 2.1570665-6.283326-.1711312-8.68416032-2.3281978-2.40083432-6.11674499-2.59201716-8.67480797-.43776001-2.55806299 2.15425716-3.01422704 5.92009773-1.04449948 8.62281553 1.96972757 2.7027178 5.69435095 3.4216208 8.52843865 1.6461048 3.4436942 1.2934079 5.8333381 4.4559772 6.137 8.122h-19.00000002c.20580946-2.4735106 1.36772907-4.769369 3.239-6.4.33137085-.2882926.36629264-.7906291.078-1.122-.28829264-.3313708-.79062915-.3662926-1.122-.078-2.42655754 2.1141055-3.81837882 5.1756747-3.81600304 8.394 0 .4385141.35548895.794.79400304.794h20.65400002c.4385141 0 .7940037-.3554859.7940037-.794.003502-4.3119065-2.4904347-8.2356848-6.3960037-10.063zm-9.49100002-4.23599999c0-2.63218912 2.13381088-4.766 4.76600002-4.766 2.6321891 0 4.766 2.13381088 4.766 4.766s-2.1338109 4.76599999-4.766 4.76599999c-2.63104676-.0027559-4.76324413-2.13495325-4.76600002-4.76599999z" fill="#2a2e43" opacity=".504464"/></svg>