<?xml version="1.0" encoding="UTF-8"?>
<svg width="18px" height="18px" viewBox="0 0 18 18" version="1.1" xmlns="http://www.w3.org/2000/svg" xmlns:xlink="http://www.w3.org/1999/xlink">
    <!-- Generator: Sketch 55.2 (78181) - https://sketchapp.com -->
    <title>Shape</title>
    <desc>Created with Sketch.</desc>
    <g id="Page-1" stroke="none" stroke-width="1" fill="none" fill-rule="evenodd">
        <g id="Health-Updates" transform="translate(-318.000000, -676.000000)" fill="rgba(245, 46, 191, 1)">
            <path d="M327,676 C322.03,676 318,680.03 318,685 C318,689.97 322.02,694 327,694 C331.97,694 336,689.97 336,685 C336,680.03 331.97,676 327,676 L327,676 Z M327,692 C323.13,692 320,688.87 320,685 C320,681.13 323.13,678 327,678 C330.87,678 334,681.13 334,685 C334,688.87 330.87,692 327,692 L327,692 Z M330.07,686.25 L329.17,687.17 C328.45,687.9 328,688.5 328,690 L326,690 L326,689.5 C326,688.4 326.45,687.4 327.17,686.67 L328.41,685.41 C328.78,685.05 329,684.55 329,684 C329,682.9 328.1,682 327,682 C325.9,682 325,682.9 325,684 L323,684 C323,681.79 324.79,680 327,680 C329.21,680 331,681.79 331,684 C331,684.88 330.64,685.68 330.07,686.25 L330.07,686.25 Z" id="Shape"></path>
        </g>
    </g>
</svg>