<?xml version="1.0" encoding="UTF-8" standalone="no"?>
<!DOCTYPE svg PUBLIC "-//W3C//DTD SVG 1.1//EN" "http://www.w3.org/Graphics/SVG/1.1/DTD/svg11.dtd">
<svg width="100%" height="100%" viewBox="0 0 179 173" version="1.1" xmlns="http://www.w3.org/2000/svg" xmlns:xlink="http://www.w3.org/1999/xlink" xml:space="preserve" xmlns:serif="http://www.serif.com/" style="fill-rule:evenodd;clip-rule:evenodd;stroke-linecap:round;stroke-linejoin:round;stroke-miterlimit:1.5;">
    <g id="_x38_">
    </g>
    <g transform="matrix(1,0,0,1,-981.423,-242.5)">
        <g transform="matrix(0.843373,0,0,0.819277,136.542,39.3614)">
            <circle cx="1108" cy="334" r="83" style="fill:none;stroke:rgba(247, 181, 0, 1);stroke-width:6.01px;"/>
        </g>
        <path d="M1101,358L1072,342L1041,358L1049,325L1023,303L1058,299L1071,268L1085,300L1118,302L1094,325L1101,358Z" style="fill:none;stroke:rgba(247, 181, 0, 1);stroke-width:5px;"/>
        <path d="M1011,350L984,377L1018,377L1018,411L1052,379C1052,379 1024,371 1011,350Z" style="fill:none;stroke:rgba(247, 181, 0, 1);stroke-width:5px;"/>
        <path d="M1133,351L1158,377L1124,378L1123,412L1091,380C1091,380 1124,367 1131,348L1133,351Z" style="fill:none;stroke:rgba(247, 181, 0, 1);stroke-width:5px;"/>
    </g>
</svg>
