<?xml version="1.0" encoding="UTF-8"?>
<svg width="24px" height="19px" viewBox="0 0 24 19" version="1.1" xmlns="http://www.w3.org/2000/svg" xmlns:xlink="http://www.w3.org/1999/xlink">
    <!-- Generator: Sketch 55.2 (78181) - https://sketchapp.com -->
    <title>download (3)</title>
    <desc>Created with Sketch.</desc>
    <g id="Page-1" stroke="none" stroke-width="1" fill="none" fill-rule="evenodd">
        <g id="Intro-video" transform="translate(-68.000000, -366.000000)" fill="#FFFFFF" fill-rule="nonzero">
            <g id="download-(3)" transform="translate(68.000000, 366.000000)">
                <path d="M13.3263248,14.7308733 C11.4017485,15.2896679 9.34709007,14.6280443 8.09158392,13.0461009 C6.64175421,11.2200738 6.65988042,8.67370234 7.97962796,6.87311193 L7.9793614,8.56302583 C7.9793614,8.859877 8.21606829,9.1004428 8.50795347,9.1004428 L8.50822004,9.1004428 C8.80010522,9.1004428 9.03707868,8.859877 9.03707868,8.56329643 L9.03814492,5.53822878 C9.03814492,5.53065191 9.03601243,5.52307503 9.03574587,5.51576876 C9.03521274,5.49763838 9.03308025,5.479508 9.03068119,5.46110701 C9.02828214,5.44460025 9.02534996,5.42863469 9.02161809,5.41239852 C9.0173531,5.39507995 9.01202187,5.37776138 9.00642407,5.36071341 C9.00055971,5.34447724 8.99469535,5.32851169 8.98749818,5.31281673 C8.98030101,5.29739237 8.97230415,5.28250923 8.96377418,5.26762608 C8.95417795,5.25111931 8.94458173,5.23515375 8.93311957,5.2197294 C8.92858802,5.21350554 8.92565584,5.20674047 8.92085772,5.20051661 C8.91525993,5.19348093 8.90832932,5.18833948 8.90246496,5.18157442 C8.89553435,5.17399754 8.89046968,5.16506765 8.88327251,5.15776138 C8.87714159,5.15153752 8.86914473,5.14639606 8.86248069,5.14071341 C8.84968572,5.12934809 8.83715731,5.11825338 8.82382922,5.10851169 C8.80943489,5.09768758 8.79504055,5.08740467 8.77957996,5.07847478 C8.7646525,5.0698155 8.75025816,5.06169742 8.73506414,5.05439114 C8.71880387,5.04654367 8.70307672,5.0400492 8.68654989,5.03355474 C8.6710893,5.02787208 8.65562872,5.02354244 8.63963501,5.01921279 C8.62257505,5.01461255 8.60498197,5.01109471 8.5873889,5.00838868 C8.57086206,5.00595326 8.55486835,5.00405904 8.53834152,5.00351784 C8.52821217,5.00297663 8.51861595,5.0002706 8.50875316,5.0002706 L5.52885864,5 L5.52885864,5 C5.23670689,5 5,5.2402952 5,5.53660517 C5,5.83345633 5.23697345,6.07402214 5.52885864,6.07402214 L7.24711609,6.07402214 C5.5291252,8.26482165 5.46568349,11.4519803 7.26710823,13.719631 C8.4317168,15.1860271 10.1611698,16 11.9540646,16 C12.5071804,16 13.0661605,15.922337 13.6163441,15.762952 C13.8973002,15.6815006 14.0599029,15.3841082 13.9794013,15.0991636 C13.8999659,14.8142189 13.6064813,14.6496925 13.3263248,14.7308733 Z" id="Path"></path>
                <path d="M18.4706103,13.9250074 L16.7536924,13.9250074 C18.4711434,11.7336138 18.5345849,8.54679658 16.7329006,6.27772857 C15.5834906,4.83006102 13.8729701,4 12.0403648,4 C12.0398316,4 12.0387654,4 12.0379657,4 C11.4779215,4 10.9216092,4.07875701 10.3839561,4.23464718 C10.1030011,4.31583998 9.94039898,4.61300561 10.0203672,4.89853361 C10.1003354,5.18352032 10.3935523,5.34969491 10.6739742,5.26769019 C11.1175314,5.13940557 11.5762825,5.07445133 12.0379657,5.07445133 C12.0384988,5.07445133 12.0392985,5.07445133 12.0400982,5.07445133 C13.5512312,5.07445133 14.9610712,5.75863596 15.9089613,6.95217006 C17.359585,8.77900797 17.3414589,11.3265673 16.0206502,13.1271528 L16.0209168,11.4364482 C16.0209168,11.1398238 15.7844774,10.8994932 15.4920602,10.8994932 C15.1999096,10.8994932 14.9632036,11.1400945 14.9632036,11.4364482 L14.9629371,14.462233 C14.9629371,14.4689991 14.9650696,14.4760358 14.9650696,14.4833432 C14.9656027,14.5025588 14.9677352,14.5215038 14.9706673,14.5404488 C14.973333,14.5572286 14.9759986,14.5731965 14.9794638,14.5894351 C14.9837288,14.6064856 14.98906,14.6232654 14.9951909,14.6403159 C15.0007887,14.6568251 15.0071862,14.673605 15.0143833,14.6893022 C15.0210473,14.7044582 15.0295773,14.7190729 15.0378407,14.733417 C15.0474368,14.7499262 15.057033,14.7656235 15.0684951,14.7807795 C15.0724936,14.7867336 15.0751592,14.7934997 15.0802238,14.7994538 C15.0852885,14.8056786 15.0919525,14.8100089 15.0967506,14.8162336 C15.1127442,14.8343667 15.1295376,14.8514172 15.1476637,14.8673851 C15.1588593,14.876587 15.1695217,14.8860594 15.1807172,14.8949907 C15.2004427,14.9093347 15.2207014,14.921243 15.2420262,14.9331513 C15.2532218,14.939376 15.2638842,14.9466834 15.2756129,14.951555 C15.3012027,14.9631926 15.3275922,14.9715825 15.3553145,14.9794312 C15.3635779,14.9815963 15.3718413,14.9851147 15.3801047,14.9870092 C15.416357,14.9945871 15.4531423,14.9997294 15.4917937,14.9997294 L18.4708769,15 L18.4708769,15 C18.7630275,15 19,14.7596693 19,14.4633156 C18.9997334,14.1653381 18.7624944,13.9250074 18.4706103,13.9250074 Z" id="Path"></path>
                <path d="M20.2262844,2.62569042 L18.6144574,2.62569042 C18.1594912,2.62569042 17.7455466,2.39708291 17.5068758,2.01422465 L16.2482602,0 L7.75147338,0 L6.49285786,2.01448833 C6.25392069,2.39708291 5.8402424,2.62569042 5.35091399,2.62569042 L3.77371558,2.62569042 C1.69253821,2.62569042 0,4.30109079 0,6.3606678 L0,15.2647589 C0,17.3245996 1.69253821,19 3.77371558,19 L20.2262844,19 C22.3071954,19 24,17.3245996 24,15.2647589 L24,6.3606678 C24,4.30109079 22.3071954,2.62569042 20.2262844,2.62569042 Z M22.942763,15.2644953 C22.942763,16.7471481 21.7243699,17.9532044 20.2262844,17.9532044 L3.77371558,17.9532044 C2.27536377,17.9532044 1.05723704,16.7471481 1.05723704,15.2644953 L1.05723704,6.3606678 C1.05723704,4.87827861 2.27563014,3.67248605 3.77371558,3.67248605 L5.3852762,3.67248605 C6.20916991,3.67248605 6.9595445,3.2582503 7.39240169,2.56478115 L8.34069191,1.04679564 L15.6590417,1.04679564 L16.6073319,2.56451747 C17.0401891,3.2582503 17.7902973,3.67248605 18.6488196,3.67248605 L20.2262844,3.67248605 C21.7243699,3.67248605 22.942763,4.87854229 22.942763,6.3606678 L22.942763,15.2644953 L22.942763,15.2644953 Z" id="Shape"></path>
            </g>
        </g>
    </g>
</svg>