<?xml version="1.0" encoding="UTF-8"?>
<svg width="25px" height="25px" viewBox="0 0 25 25" version="1.1" xmlns="http://www.w3.org/2000/svg" xmlns:xlink="http://www.w3.org/1999/xlink">
    <!-- Generator: Sketch 55.2 (78181) - https://sketchapp.com -->
    <title>download (4)</title>
    <desc>Created with Sketch.</desc>
    <g id="Page-1" stroke="none" stroke-width="1" fill="none" fill-rule="evenodd">
        <g id="Intro-video" transform="translate(-68.000000, -297.000000)" fill="#FFFFFF" fill-rule="nonzero">
            <g id="download-(4)" transform="translate(68.000000, 297.000000)">
                <path d="M24.49981,25 C24.3717933,25 24.2437767,24.9509924 24.146264,24.8534773 L0.146644064,0.853757332 C-0.0488813546,0.658227025 -0.0488813546,0.342178038 0.146644064,0.14664773 C0.342169482,-0.0488825768 0.658210567,-0.0488825768 0.853735986,0.14664773 L24.8533559,24.1463677 C25.0488814,24.341898 25.0488814,24.657947 24.8533559,24.8534773 C24.7558433,24.9509924 24.6278266,25 24.49981,25 Z" id="Path"></path>
                <path d="M6.00064281,22 C4.34604671,22 3,20.6546182 3,19.0010715 C3,17.346239 4.34604671,16 6.00064281,16 C7.65438183,16 9,17.346239 9,19.0010715 C9,20.6546182 7.65438183,22 6.00064281,22 Z M6.00064281,16.8572041 C4.81872723,16.8572041 3.85708164,17.8189871 3.85708164,19.0010715 C3.85708164,20.1822987 4.81872723,21.1427959 6.00064281,21.1427959 C7.18212985,21.1427959 8.14291836,20.1822987 8.14291836,19.0010715 C8.14291836,17.8189871 7.18212985,16.8572041 6.00064281,16.8572041 Z" id="Shape"></path>
                <path d="M19.0008571,18 C17.3461429,18 16,16.6545221 16,15.0008573 C16,13.3463352 17.3461429,12 19.0008571,12 C20.6542857,12 22,13.3463352 22,15.0008573 C22,16.6545221 20.6542857,18 19.0008571,18 Z M19.0008571,12.8572653 C17.8188571,12.8572653 16.8571429,13.8186884 16.8571429,15.0008573 C16.8571429,16.1821689 17.8188571,17.1427347 19.0008571,17.1427347 C20.182,17.1427347 21.1428571,16.1821689 21.1428571,15.0008573 C21.1428571,13.8186884 20.182,12.8572653 19.0008571,12.8572653 Z" id="Shape"></path>
                <path d="M8.53839942,20 C8.24066454,20 8,19.7625299 8,19.468747 L8,8.31509051 C8,8.09355802 8.13944545,7.89540065 8.34888282,7.81730646 L21.272084,3.0333733 C21.4389878,2.97281046 21.622582,2.99565434 21.7679499,3.09393614 C21.9133177,3.1938117 22,3.35690637 22,3.53115735 L22,14.6848138 C22,14.9785968 21.7593355,15.2160668 21.4616006,15.2160668 C21.1638657,15.2160668 20.9232012,14.9785968 20.9232012,14.6848138 L20.9232012,4.29775541 L9.07679883,8.68324883 L9.07679883,19.468747 C9.07679883,19.7625299 8.83613429,20 8.53839942,20 Z" id="Path"></path>
                <path d="M16.4286934,9 C16.255602,9 16.0919364,8.88604359 16.0272414,8.70103742 C15.9445517,8.46205191 16.0563756,8.19630739 16.2778811,8.10680316 L21.4209228,6.02882871 C21.6428568,5.94116993 21.8896405,6.05973996 21.9727586,6.29872548 C22.0554483,6.537711 21.9436244,6.80345551 21.7221189,6.89295974 L16.5790772,8.97093419 C16.5293777,8.9903114 16.4788213,9 16.4286934,9 Z" id="Path"></path>
            </g>
        </g>
    </g>
</svg>