<svg height="21" viewBox="0 0 14 21" width="14" xmlns="http://www.w3.org/2000/svg"><g fill="#fff"><path d="m4.99785669 6.13569006h-.32844813l.05120779-.67163079h.95947015c.11091159 0 .16632876-.11397817.16632876-.2320112 0-.11401504-.05541717-.23204807-.16632876-.23204807h-1.31340632c-.0639518 0-.09805171.06513565-.10658634.16687555l-.11091158 1.07055441c0 .03664111-.00424801.07328222-.00424801.10583161 0 .1261796.04695978.20760838.22178455.20760838h.63117651c.27720172 0 .44777848.14656444.44777848.45591271v.07733707c0 .30934827-.17057676.451821-.45202649.451821-.24734982 0-.43924386-.10988647-.43924386-.30934828 0-.11397818-.04267315-.20351666-.27720172-.20351666-.17486339 0-.27720172.05289737-.27720172.24015777 0 .37853878.35393616.73676644 1.00639132.73676644.55011682 0 .99360868-.24830434.99360868-.91588027v-.07733707c0-.63908139-.43924385-.8710926-1.00214331-.8710926z"/><path d="m7.50368929 8c-.2888382 0-.50368929.22799307-.50368929.5 0 .26468238.21485109.5.50368929.5.26663537 0 .49631071-.23525103.49631071-.5 0-.27200693-.22960826-.5-.49631071-.5z"/><path d="m9.49255633 6.34733298c.2430632-.08139292.40935334-.28491208.40935334-.62685082 0-.51692613-.37950144-.72048216-.89972774-.72048216-.52451293 0-.90405298.20351916-.90405298.72048216 0 .34193874.16629014.5454579.40935333.62685082-.30276699.10583291-.50748228.34599364-.50748228.76527039v.04884312c0 .60650259.43924385.83855351 1.00218193.83855351.56286084 0 .99781807-.23205092.99781807-.83855351v-.04884312c0-.41927675-.20042866-.65943748-.50744367-.76527039zm-.49041302-.91585466c.23024195 0 .3667188.10177801.3667188.3541403s-.13647685.3541403-.3667188.3541403c-.23452857 0-.36675742-.10177801-.36675742-.3541403s.13222885-.3541403.36675742-.3541403zm.44349186 1.66896035c0 .31749874-.16200351.46811987-.44345324.46811987-.27724034 0-.44777849-.14656623-.44777849-.46811987v-.08142979c0-.30938893.16629014-.44777164.44777849-.44777164.2771631 0 .44345324.13841957.44345324.44777164z"/><path d="m11.6849107 11h-7.36982142c-.17405092 0-.31508928.2238736-.31508928.5s.14103836.5.31508928.5h7.36982142c.1740509 0 .3150893-.2238736.3150893-.5s-.1410384-.5-.3150893-.5z"/><path d="m3.61261005 11h-1.2252201c-.2139888 0-.38738995.2238736-.38738995.5s.17340115.5.38738995.5h1.2252201c.2139888 0 .38738995-.2238736.38738995-.5s-.17340115-.5-.38738995-.5z"/><path d="m11.4127241 4h-8.82548828c-.32379319 0-.58723582.25885117-.58723582.57700107v4.84599786c0 .31818928.26344263.57700107.58723582.57700107h8.82544818c.3238333 0 .587316-.25885117.587316-.57700107v-4.84599786c0-.31818928-.2634426-.57700107-.5872759-.57700107zm-.0139856 5.40921768h-8.79747699v-4.81847474h8.79747699z"/><path d="m13.6887516 4.878635c-.1718835 0-.3111655.13777122-.3111655.30769862v6.87990648c0 1.0018867-.3025382 1.9684591-.8748471 2.7952094-.4684903.6767975-1.0664739 1.2519995-1.749943 1.6989049v-2.3932161c0-.327263-.269273-.5935359-.6001819-.5935359h-6.30535266c-.33095035 0-.60022339.2662729-.60022339.5935359v2.3932161c-.68346907-.4469464-1.28145267-1.0221484-1.74994297-1.6989049-.57226743-.8267914-.87480557-1.7933637-.87480557-2.7952094v-8.33161068c0-1.71994585 1.41505225-3.11923218 3.15437693-3.11923218h6.44650116c1.7393247 0 3.1544185 1.39928633 3.1544185 3.11923218 0 .16992741.139282.30769862.3111655.30769862.1718834 0 .3112484-.13777121.3112484-.30769862 0-2.05926746-1.6943214-3.73462942-3.7768324-3.73462942h-6.44650116c-2.08251094 0-3.77666644 1.67536196-3.77666644 3.73462942v8.33156968c0 1.1264919.34011691 2.2132398.98364298 3.1428571.61892982.8940979 1.44367184 1.6267586 2.3903997 2.1463845.02156839.015709.04516918.0287929.07051204.0386367.59810803.3195521 1.24362503.5540379 1.91585366.691317v2.4564209c0 .2526558.20784461.4581847.46334707.4581847h2.35244762c.25550246 0 .46338855-.2055289.46338855-.4581847v-2.4564209c.67218715-.1372791 1.31766268-.3717239 1.91572918-.691235.0254259-.0098848.0491096-.0229687.0707195-.0387597.9466864-.5196259 1.7713454-1.2522866 2.3902752-2.1463435.6435676-.9295763.9836845-2.0163242.9836845-3.1428571v-6.8799065c0-.1699274-.139365-.3076576-.3112484-.3076576zm-8.3283847 12.5771708c-.51959079-.1170174-1.02043368-.298019-1.49099786-.5359502v-2.730856h1.49099786zm2.65685226 2.9287559h-2.03452127v-3.0229687h2.03452127zm0-3.6383249h-2.03452127v-1.2431401h2.03452127zm0-1.8584963h-2.03452127v-.6987409h2.03452127zm.62228951 2.5680653v-3.2668062h1.49095643v2.730856c-.47056423.2379312-.97140712.4189328-1.49095643.5359502z"/></g></svg>