<?xml version="1.0" encoding="UTF-8"?>
<svg width="18px" height="18px" viewBox="0 0 18 18" version="1.1" xmlns="http://www.w3.org/2000/svg" xmlns:xlink="http://www.w3.org/1999/xlink">
    <!-- Generator: Sketch 55.2 (78181) - https://sketchapp.com -->
    <title>Shape</title>
    <desc>Created with Sketch.</desc>
    <g id="Page-1" stroke="none" stroke-width="1" fill="none" fill-rule="evenodd">
        <g id="Health-Updates" transform="translate(-318.000000, -521.000000)" fill="rgba(126, 217, 88, 1)">
            <g id="recent" transform="translate(0.000000, 160.000000)">
                <g id="Recent-activity" transform="translate(0.000000, 20.000000)">
                    <g id="1" transform="translate(0.000000, 294.000000)">
                        <path d="M327,47 C322.03,47 318,51.03 318,56 C318,60.97 322.02,65 327,65 C331.97,65 336,60.97 336,56 C336,51.03 331.97,47 327,47 L327,47 Z M327,63 C323.13,63 320,59.87 320,56 C320,52.13 323.13,49 327,49 C330.87,49 334,52.13 334,56 C334,59.87 330.87,63 327,63 L327,63 Z M325.54,57.53 L323.41,55.4 L322.35,56.46 L325.53,59.64 L331.53,53.64 L330.47,52.58 L325.54,57.53 L325.54,57.53 Z" id="Shape"></path>
                    </g>
                </g>
            </g>
        </g>
    </g>
</svg>