<?xml version="1.0" encoding="UTF-8"?>
<svg width="37px" height="45px" viewBox="0 0 37 45" version="1.1" xmlns="http://www.w3.org/2000/svg" xmlns:xlink="http://www.w3.org/1999/xlink">
    <!-- Generator: Sketch 55.2 (78181) - https://sketchapp.com -->
    <title>mobile wallet</title>
    <desc>Created with Sketch.</desc>
    <g id="Page-1" stroke="none" stroke-width="1" fill="none" fill-rule="evenodd">
        <g id="Checkout" transform="translate(-43.000000, -549.000000)">
            <g id="mobile-wallet" transform="translate(36.000000, 548.000000)">
                <rect id="Rectangle" stroke="rgba(245, 46, 191, 1)" stroke-width="1" x="16.5487805" y="1.64634146" width="10.4634146" height="4.73170732" rx="2.36585366"></rect>
                <text id="`" font-family="SourceSansPro-Black, Source Sans Pro" font-size="18" font-weight="700" fill="rgba(245, 46, 191, 1)">
                    <tspan x="19.4878049" y="31.1463415"> </tspan>
                    <tspan x="23.0878049" y="31.1463415" font-family="RupeeForadian, Rupee Foradian" font-size="14" font-weight="normal">`</tspan>
                </text>
                <path d="M17.7682927,16.6219512 L43.1047899,16.6219512" id="Line-2" stroke="rgba(245, 46, 191, 1)" stroke-width="1" stroke-linecap="square"></path>
                <rect id="Rectangle" stroke="rgba(245, 46, 191, 1)" stroke-width="1" x="34.9878049" y="21.1341463" width="8.17073171" height="7.02439024" rx="2"></rect>
                <path d="M34.8223609,34.9758468 L34.8223609,41.3993428 C34.3090291,42.3281759 33.8154343,43.0120573 33.3415766,43.4509873 C32.8677188,43.8899172 32.0214534,44.4471355 30.8027803,45.122642 L12.8158188,45.122642 C11.7331171,44.7645541 10.9426487,44.3727382 10.4444133,43.9471942 C9.94617804,43.5216501 9.28354268,42.6723664 8.45650724,41.3993428 L8.45650724,5.18064592 C9.04353332,4.01878375 9.57854864,3.20445973 10.0615532,2.73767388 C10.5445578,2.27088802 11.2577834,1.87888551 12.2012301,1.56166635 L30.7433132,1.56166635 C32.3116827,1.96692836 33.3215296,2.35893087 33.7728539,2.73767388 C34.5436585,3.38451869 34.8223609,4.60932398 34.8223609,5.18064592 C34.8223609,6.25375172 34.8223609,8.29353353 34.8223609,11.2999914" id="Path-2" stroke="rgba(245, 46, 191, 1)" stroke-width="1"></path>
                <rect id="Rectangle" fill="rgba(245, 46, 191, 1)" fill-rule="evenodd" x="37.4878049" y="24.0731707" width="3.43902439" height="1.14634146"></rect>
                <path d="M43.1047899,21.7804878 L43.1047899,12.0603742 L20.2787133,12.0603742 C19.4102379,12.6013658 18.8190623,13.0594173 18.5051865,13.4345286 C18.1913107,13.80964 17.9456794,14.351652 17.7682927,15.0605647 L17.7682927,31.774033 C17.9121801,32.7172152 18.1578114,33.3756526 18.5051865,33.749345 C18.8525616,34.1230374 19.5944931,34.526981 20.7309808,34.9611757 L43.1047899,34.9611757 L43.1047899,28.6585366" id="Path" stroke="rgba(245, 46, 191, 1)" stroke-width="1"></path>
            </g>
        </g>
    </g>
</svg>